<?xml version="1.0" encoding="UTF-8"?>
<svg width="40px" height="40px" viewBox="0 0 40 40" version="1.1" xmlns="http://www.w3.org/2000/svg" xmlns:xlink="http://www.w3.org/1999/xlink">
    <!-- Generator: Sketch 47.1 (45422) - http://www.bohemiancoding.com/sketch -->
    <title>采购记录</title>
    <desc>Created with Sketch.</desc>
    <defs></defs>
    <g id="切图" stroke="none" stroke-width="1" fill="none" fill-rule="evenodd">
        <g id="采购记录">
            <circle id="Oval-3-Copy-2" stroke="#1B6DC5" cx="19.5" cy="19.5" r="18.5"></circle>
            <g id="采购订单-copy" transform="translate(11.000000, 7.000000)" fill-rule="nonzero" fill="#1B6DC5">
                <path d="M17.3639576,25 L0.636042403,25 C0.279858657,25 0,24.7166409 0,24.3560021 L0,4.0314271 C0,3.67078825 0.279858657,3.38742916 0.636042403,3.38742916 L5.06289753,3.38742916 C5.36819788,1.4683153 7.02190813,0 9.00636042,0 C10.9908127,0 12.6318021,1.4683153 12.9371025,3.38742916 L17.3639576,3.38742916 C17.7201413,3.38742916 18,3.67078825 18,4.0314271 L18,24.3560021 C18,24.7166409 17.7201413,25 17.3639576,25 L17.3639576,25 Z M1.27208481,23.7120041 L16.7279152,23.7120041 L16.7279152,4.67542504 L12.3519435,4.67542504 C11.9957597,4.67542504 11.7159011,4.39206595 11.7159011,4.0314271 C11.7159011,2.52447192 10.4946996,1.28799588 9.00636042,1.28799588 C7.50530035,1.28799588 6.28409894,2.52447192 6.28409894,4.0314271 C6.28409894,4.39206595 6.00424028,4.67542504 5.64805654,4.67542504 L1.27208481,4.67542504 L1.27208481,23.7120041 L1.27208481,23.7120041 Z" id="Shape"></path>
                <path d="M8,3 C8.4400978,3 8.80684597,3.38772213 8.80684597,3.85298869 C8.80684597,4.31825525 8.4400978,4.70597738 8,4.70597738 C7.5599022,4.70597738 7.19315403,4.31825525 7.19315403,3.85298869 C7.19315403,3.38772213 7.54767726,3 8,3 Z M6.86308068,15.0710824 C6.70415648,15.0710824 6.54523227,15.006462 6.43520782,14.8772213 L3.18337408,11.4394184 C2.93887531,11.180937 2.93887531,10.7802908 3.18337408,10.5218094 C3.42787286,10.2633279 3.80684597,10.2633279 4.05134474,10.5218094 L6.86308068,13.5072698 L11.9486553,8.11793215 C12.193154,7.85945073 12.5721271,7.85945073 12.8166259,8.11793215 C13.0611247,8.37641357 13.0611247,8.77705977 12.8166259,9.0355412 L7.30317848,14.8772213 C7.1809291,15.006462 7.02200489,15.0710824 6.86308068,15.0710824 L6.86308068,15.0710824 Z M12.00978,19 L3.92909535,19 C3.58679707,19 3.31784841,18.7156704 3.31784841,18.3537964 C3.31784841,17.9919225 3.58679707,17.7075929 3.92909535,17.7075929 L12.00978,17.7075929 C12.3520782,17.7075929 12.6210269,17.9919225 12.6210269,18.3537964 C12.6210269,18.7156704 12.3520782,19 12.00978,19 L12.00978,19 Z" id="Shape"></path>
            </g>
        </g>
    </g>
</svg>