<?xml version="1.0" encoding="UTF-8"?>
<svg width="40px" height="40px" viewBox="0 0 40 40" version="1.1" xmlns="http://www.w3.org/2000/svg" xmlns:xlink="http://www.w3.org/1999/xlink">
    <!-- Generator: Sketch 47.1 (45422) - http://www.bohemiancoding.com/sketch -->
    <title>我要采购</title>
    <desc>Created with Sketch.</desc>
    <defs></defs>
    <g id="切图" stroke="none" stroke-width="1" fill="none" fill-rule="evenodd">
        <g id="我要采购">
            <circle id="Oval-3-Copy-2" stroke="#1B6DC5" cx="19.5" cy="19.5" r="18.5"></circle>
            <g id="采购-2-copy" transform="translate(6.000000, 8.000000)" fill-rule="nonzero" fill="#1B6DC5">
                <path d="M19.6875,6.52173913 L18.5625,6.52173913 L18.5625,1.63043478 C18.5625,0.70652173 17.83125,0 16.875,0 C15.91875,0 15.1875,0.70652173 15.1875,1.63043478 L15.1875,6.52173913 L14.0625,6.52173913 L16.875,9.78260869 L19.6875,6.52173913 Z M16.3125,1.63043478 C16.3125,1.30434783 16.5375,1.08695653 16.875,1.08695653 C17.2125,1.08695653 17.4375,1.30434783 17.4375,1.63043478 L17.4375,7.44565218 L16.875,8.09782609 L16.3125,7.44565218 L16.3125,1.63043478 Z M26.4375,8.69565218 L21.9375,8.69565218 C21.6,8.69565218 21.375,8.91304348 21.375,9.23913044 C21.375,9.56521739 21.6,9.78260869 21.9375,9.78260869 L23.45625,9.78260869 L19.125,23.2065217 C18.95625,23.6413044 18.5625,23.9673913 18.1125,23.9673913 L8.83124999,23.9673913 C8.38124998,23.9673913 7.98749999,23.6956521 7.81874999,23.2065217 L3.54375,9.78260869 L11.8125,9.78260869 C12.15,9.78260869 12.375,9.56521739 12.375,9.23913044 C12.375,8.91304348 12.15,8.69565218 11.8125,8.69565218 L0.562499991,8.69565218 C0.224999991,8.69565218 0,8.91304348 0,9.23913044 C0,9.56521739 0.224999991,9.78260869 0.562499991,9.78260869 L2.41874999,9.78260869 L6.86250001,23.5326087 C7.14375002,24.4021739 7.93125,25 8.88750001,25 L18.16875,25 C19.06875,25 19.85625,24.4021739 20.19375,23.5326087 L24.58125,9.78260869 L26.4375,9.78260869 C26.775,9.78260869 27,9.56521739 27,9.23913044 C27,8.91304348 26.775,8.69565218 26.4375,8.69565218 Z M16.875,15.2173913 C16.875,14.8913044 16.65,14.6739131 16.3125,14.673913 L7.31249999,14.673913 C6.97499999,14.673913 6.75,14.8913043 6.75,15.2173913 C6.75,15.5434783 6.97499999,15.7608696 7.31249999,15.7608696 L16.3125,15.7608696 C16.65,15.7608696 16.875,15.5434783 16.875,15.2173913 Z M11.8125,20.1086957 L18,20.1086957 C18.3375,20.1086957 18.5625,19.8913044 18.5625,19.5652174 C18.5625,19.2391304 18.3375,19.0217391 18,19.0217391 L11.8125,19.0217391 C11.475,19.0217391 11.25,19.2391304 11.25,19.5652174 C11.25,19.8913043 11.475,20.1086956 11.8125,20.1086957 Z" id="Shape"></path>
            </g>
        </g>
    </g>
</svg>