<?xml version="1.0" encoding="UTF-8"?>
<svg width="40px" height="40px" viewBox="0 0 40 40" version="1.1" xmlns="http://www.w3.org/2000/svg" xmlns:xlink="http://www.w3.org/1999/xlink">
    <!-- Generator: Sketch 47.1 (45422) - http://www.bohemiancoding.com/sketch -->
    <title>我要询价</title>
    <desc>Created with Sketch.</desc>
    <defs></defs>
    <g id="切图" stroke="none" stroke-width="1" fill="none" fill-rule="evenodd">
        <g id="我要询价">
            <circle id="Oval-3-Copy-2" stroke="#1B6DC5" cx="19.5" cy="19.5" r="18.5"></circle>
            <g id="询价-copy" transform="translate(7.000000, 8.000000)" fill-rule="nonzero" fill="#1B6DC5">
                <path d="M22.1017277,22.073537 L22.1017277,24 L5.63537514,24 L5.63537514,20.9984464 L3.03443277,20.9984464 L3.03443277,18.9445883 L0,17.1424133 L3.03443277,15.3402382 L3.03443277,0 L19.5007853,0 L19.5007853,3.0015536 L22.1017277,3.0015536 L22.1017277,18.2143967 L26,20.1439669 L22.1017277,22.073537 Z M18.2003141,1.28638011 L4.33804519,1.28638011 L4.33804519,16.0704298 L2.17059321,17.1424133 L4.33804519,18.2143967 L4.33804519,19.7120663 L5.63851637,19.7120663 L5.63851637,2.9984464 L18.2034554,2.9984464 L18.2034554,1.28638011 L18.2003141,1.28638011 Z M20.8012565,18.8544795 L20.8012565,4.28482651 L6.93584632,4.28482651 L6.93584632,22.7136199 L20.7981153,22.7136199 L20.7981153,21.4272398 L23.4021989,20.1408597 L20.8012565,18.8544795 L20.8012565,18.8544795 Z M14.3020418,17.1424133 L13.0015706,17.1424133 L13.0015706,15.8560331 L10.4006282,15.8560331 L10.4006282,14.569653 L13.0015706,14.569653 L13.0015706,13.2832729 L10.4006282,13.2832729 L10.4006282,12 L11.7010994,12 L11.7010994,9.42723977 L13.0015706,9.42723977 L13.0015706,12 L14.3020418,12 L14.3020418,9.42723977 L15.602513,9.42723977 L15.602513,12 L16.9029842,12 L16.9029842,13.2863801 L14.3020418,13.2863801 L14.3020418,14.5727602 L16.9029842,14.5727602 L16.9029842,15.8591403 L14.3020418,15.8591403 L14.3020418,17.1424133 L14.3020418,17.1424133 Z" id="Shape"></path>
            </g>
        </g>
    </g>
</svg>