<?xml version="1.0" encoding="UTF-8"?>
<svg width="36px" height="36px" viewBox="0 0 36 36" version="1.1" xmlns="http://www.w3.org/2000/svg" xmlns:xlink="http://www.w3.org/1999/xlink">
    <!-- Generator: Sketch 47.1 (45422) - http://www.bohemiancoding.com/sketch -->
    <title>省心省力</title>
    <desc>Created with Sketch.</desc>
    <defs></defs>
    <g id="切图" stroke="none" stroke-width="1" fill="none" fill-rule="evenodd">
        <g id="省心省力">
            <g id="保证金担保" transform="translate(4.000000, 1.000000)" stroke="#B7926E" fill-rule="nonzero">
                <path d="M27.821875,4.60225141 C22.928125,4.60225141 18.30625,3.03377111 15.225,0.30956848 C14.771875,-0.103189493 14.1375,-0.103189493 13.684375,0.30956848 C10.603125,3.03377111 5.98125,4.60225141 1.0875,4.60225141 C0.453125,4.60225141 0,5.01500938 0,5.59287054 L0,18.1407129 C0,22.1031895 2.265625,25.9005629 6.071875,28.1294559 L13.865625,32.8348968 C14.046875,32.9174484 14.228125,33 14.5,33 C14.68125,33 14.953125,32.9174484 15.134375,32.8348968 L22.928125,28.1294559 C26.734375,25.8180113 29,22.1031895 29,18.1407129 L29,5.59287054 C28.909375,5.01500938 28.365625,4.60225141 27.821875,4.60225141 Z" id="Shape"></path>
            </g>
            <path d="M16.895,11 L18.44,11 L18.44,14.825 L16.895,14.825 L16.895,11 Z M13.55,17.915 L11.645,18.275 L11,16.865 C15.5,16.16 18.965,15.05 21.365,13.535 C20.885,13.16 20.39,12.785 19.85,12.41 L20.9,11.39 C22.415,12.455 23.705,13.505 24.755,14.54 L23.66,15.65 C23.3,15.26 22.91,14.855 22.46,14.45 C21.2,15.305 19.7,16.04 17.99,16.67 L23.03,16.67 L23.03,24.89 L21.5,24.89 L21.5,24.35 L15.065,24.35 L15.065,24.92 L13.55,24.92 L13.55,17.915 Z M15.065,22.97 L21.5,22.97 L21.5,22.07 L15.065,22.07 L15.065,22.97 Z M15.065,20.84 L21.5,20.84 L21.5,20.03 L15.065,20.03 L15.065,20.84 Z M15.065,18.8 L21.5,18.8 L21.5,17.975 L15.065,17.975 L15.065,18.8 Z M14.555,11.87 L15.65,12.845 C14.78,13.925 13.685,14.87 12.395,15.68 L11.48,14.51 C12.71,13.76 13.73,12.875 14.555,11.87 Z" id="省" fill="#B7926E"></path>
        </g>
    </g>
</svg>