<?xml version="1.0" encoding="UTF-8"?>
<svg width="36px" height="36px" viewBox="0 0 36 36" version="1.1" xmlns="http://www.w3.org/2000/svg" xmlns:xlink="http://www.w3.org/1999/xlink">
    <!-- Generator: Sketch 47.1 (45422) - http://www.bohemiancoding.com/sketch -->
    <title>阳光采购</title>
    <desc>Created with Sketch.</desc>
    <defs></defs>
    <g id="切图" stroke="none" stroke-width="1" fill="none" fill-rule="evenodd">
        <g id="阳光采购">
            <g id="保证金担保" transform="translate(4.000000, 1.000000)" stroke="#B7926E" fill-rule="nonzero">
                <path d="M27.821875,4.60225141 C22.928125,4.60225141 18.30625,3.03377111 15.225,0.30956848 C14.771875,-0.103189493 14.1375,-0.103189493 13.684375,0.30956848 C10.603125,3.03377111 5.98125,4.60225141 1.0875,4.60225141 C0.453125,4.60225141 0,5.01500938 0,5.59287054 L0,18.1407129 C0,22.1031895 2.265625,25.9005629 6.071875,28.1294559 L13.865625,32.8348968 C14.046875,32.9174484 14.228125,33 14.5,33 C14.68125,33 14.953125,32.9174484 15.134375,32.8348968 L22.928125,28.1294559 C26.734375,25.8180113 29,22.1031895 29,18.1407129 L29,5.59287054 C28.909375,5.01500938 28.365625,4.60225141 27.821875,4.60225141 Z" id="Shape"></path>
            </g>
            <path d="M22.235,12.98 L23.66,13.67 C23.015,14.96 22.25,16.07 21.38,17 L20.12,16.115 C20.93,15.245 21.635,14.195 22.235,12.98 Z M17.96,13.25 L16.505,13.745 C16.97,14.555 17.345,15.395 17.645,16.28 L19.16,15.89 C18.8,14.9 18.41,14.03 17.96,13.25 Z M13.88,13.625 C14.42,14.435 14.9,15.305 15.305,16.235 L13.865,16.88 C13.415,15.83 12.92,14.915 12.38,14.12 L13.88,13.625 Z M22.97,11 L23.735,12.305 C20.84,12.89 17,13.19 12.23,13.19 L11.735,11.735 C16.145,11.735 19.895,11.48 22.97,11 Z M11.78,17.795 L17.06,17.795 L17.06,16.58 L18.62,16.58 L18.62,17.795 L23.915,17.795 L23.915,19.325 L19.91,19.325 C20.93,20.63 22.535,21.8 24.725,22.835 L23.6,24.26 C21.29,22.79 19.625,21.17 18.62,19.37 L18.62,24.8 L17.06,24.8 L17.06,19.445 C15.965,21.395 14.24,23.015 11.9,24.305 L11,22.835 C13.13,21.89 14.72,20.72 15.77,19.325 L11.78,19.325 L11.78,17.795 Z" id="采" fill="#B7926E"></path>
        </g>
    </g>
</svg>