<?xml version="1.0" encoding="UTF-8"?>
<svg width="36px" height="36px" viewBox="0 0 36 36" version="1.1" xmlns="http://www.w3.org/2000/svg" xmlns:xlink="http://www.w3.org/1999/xlink">
    <!-- Generator: Sketch 47.1 (45422) - http://www.bohemiancoding.com/sketch -->
    <title>提升效率</title>
    <desc>Created with Sketch.</desc>
    <defs></defs>
    <g id="切图" stroke="none" stroke-width="1" fill="none" fill-rule="evenodd">
        <g id="提升效率">
            <g id="保证金担保" transform="translate(4.000000, 1.000000)" stroke="#B7926E" fill-rule="nonzero">
                <path d="M27.821875,4.60225141 C22.928125,4.60225141 18.30625,3.03377111 15.225,0.30956848 C14.771875,-0.103189493 14.1375,-0.103189493 13.684375,0.30956848 C10.603125,3.03377111 5.98125,4.60225141 1.0875,4.60225141 C0.453125,4.60225141 0,5.01500938 0,5.59287054 L0,18.1407129 C0,22.1031895 2.265625,25.9005629 6.071875,28.1294559 L13.865625,32.8348968 C14.046875,32.9174484 14.228125,33 14.5,33 C14.68125,33 14.953125,32.9174484 15.134375,32.8348968 L22.928125,28.1294559 C26.734375,25.8180113 29,22.1031895 29,18.1407129 L29,5.59287054 C28.909375,5.01500938 28.365625,4.60225141 27.821875,4.60225141 Z" id="Shape"></path>
            </g>
            <path d="M13.175,14.375 L14.525,15.035 C13.88,16.415 13.13,17.615 12.26,18.635 L11,17.735 C11.84,16.805 12.575,15.695 13.175,14.375 Z M17.135,17.375 C16.55,16.625 15.905,15.905 15.185,15.2 L16.13,14.27 C16.7,14.735 17.375,15.425 18.17,16.355 L17.135,17.375 Z M13.505,17.99 C14.03,18.41 14.54,18.83 15.02,19.265 C15.32,18.665 15.575,18.02 15.785,17.345 L17.15,17.945 C16.88,18.83 16.565,19.64 16.205,20.375 C16.775,20.93 17.33,21.5 17.84,22.1 L16.745,23.33 C16.295,22.79 15.83,22.28 15.38,21.8 C14.48,23.09 13.355,24.125 12.005,24.905 L11.03,23.48 C12.32,22.79 13.385,21.83 14.225,20.63 C13.655,20.075 13.1,19.565 12.53,19.1 L13.505,17.99 Z M15.11,11 C15.32,11.45 15.515,11.945 15.695,12.5 L18.44,12.5 L18.44,14.015 L11.36,14.015 L11.36,12.5 L14.15,12.5 C13.94,12.065 13.73,11.66 13.49,11.27 L15.11,11 Z M20.555,14.87 C20.465,15.14 20.36,15.425 20.27,15.695 C20.57,16.955 20.96,18.095 21.41,19.115 C21.965,17.87 22.28,16.46 22.37,14.87 L20.555,14.87 Z M20.57,20.615 C20.12,19.7 19.73,18.71 19.4,17.63 C19.175,18.02 18.935,18.395 18.695,18.74 L17.72,17.525 C18.74,15.92 19.445,13.76 19.805,11.03 L21.35,11.3 C21.23,12.02 21.11,12.695 20.96,13.34 L24.92,13.34 L24.92,14.87 L23.81,14.87 C23.69,17.12 23.18,19.07 22.28,20.72 C23.09,21.965 24.05,22.925 25.175,23.6 L24.23,24.98 C23.135,24.275 22.19,23.3 21.395,22.07 C20.465,23.255 19.28,24.245 17.84,25.055 L16.955,23.615 C18.485,22.865 19.7,21.86 20.57,20.615 Z" id="效" fill="#B7926E"></path>
        </g>
    </g>
</svg>