<?xml version="1.0" encoding="UTF-8"?>
<svg width="36px" height="36px" viewBox="0 0 36 36" version="1.1" xmlns="http://www.w3.org/2000/svg" xmlns:xlink="http://www.w3.org/1999/xlink">
    <!-- Generator: Sketch 47.1 (45422) - http://www.bohemiancoding.com/sketch -->
    <title>专业服务</title>
    <desc>Created with Sketch.</desc>
    <defs></defs>
    <g id="切图" stroke="none" stroke-width="1" fill="none" fill-rule="evenodd">
        <g id="专业服务">
            <g id="Group" transform="translate(4.000000, 1.000000)" fill-rule="nonzero" stroke="#B7926E">
                <g id="保证金担保">
                    <path d="M27.821875,4.60225141 C22.928125,4.60225141 18.30625,3.03377111 15.225,0.30956848 C14.771875,-0.103189493 14.1375,-0.103189493 13.684375,0.30956848 C10.603125,3.03377111 5.98125,4.60225141 1.0875,4.60225141 C0.453125,4.60225141 0,5.01500938 0,5.59287054 L0,18.1407129 C0,22.1031895 2.265625,25.9005629 6.071875,28.1294559 L13.865625,32.8348968 C14.046875,32.9174484 14.228125,33 14.5,33 C14.68125,33 14.953125,32.9174484 15.134375,32.8348968 L22.928125,28.1294559 C26.734375,25.8180113 29,22.1031895 29,18.1407129 L29,5.59287054 C28.909375,5.01500938 28.365625,4.60225141 27.821875,4.60225141 Z" id="Shape"></path>
                </g>
            </g>
            <path d="M11,15.53 L11,17.03 L14.765,17.03 C14.45,18.05 14.12,19.055 13.76,20.015 L20.975,20.015 C20.27,20.78 19.295,21.545 18.065,22.295 C17.135,21.995 16.16,21.725 15.14,21.47 L14.315,22.7 C16.655,23.285 18.92,24.095 21.14,25.13 L22.01,23.78 C21.29,23.465 20.555,23.165 19.775,22.895 C21.17,21.89 22.205,20.9 22.865,19.925 L22.865,18.575 L15.995,18.575 C16.16,18.095 16.325,17.57 16.49,17.03 L24.62,17.03 L24.62,15.53 L16.895,15.53 C17,15.08 17.105,14.63 17.21,14.15 L23.72,14.15 L23.72,12.695 L17.525,12.695 C17.615,12.185 17.72,11.675 17.81,11.135 L16.205,11 C16.085,11.57 15.98,12.125 15.86,12.695 L12.035,12.695 L12.035,14.15 L15.53,14.15 C15.41,14.6 15.305,15.065 15.185,15.53 L11,15.53 Z" id="专" fill="#B7926E"></path>
        </g>
    </g>
</svg>