<?xml version="1.0" encoding="UTF-8"?>
<svg width="57px" height="57px" viewBox="0 0 57 57" version="1.1" xmlns="http://www.w3.org/2000/svg" xmlns:xlink="http://www.w3.org/1999/xlink">
    <!-- Generator: Sketch 47.1 (45422) - http://www.bohemiancoding.com/sketch -->
    <title>企业采购-我的</title>
    <desc>Created with Sketch.</desc>
    <defs>
        <linearGradient x1="50%" y1="0%" x2="50%" y2="100%" id="linearGradient-1">
            <stop stop-color="#1FA1F1" offset="0%"></stop>
            <stop stop-color="#1B6DC5" offset="100%"></stop>
        </linearGradient>
    </defs>
    <g id="切图" stroke="none" stroke-width="1" fill="none" fill-rule="evenodd">
        <g transform="translate(-261.000000, -35.000000)" id="待发货" fill-rule="nonzero" fill="url(#linearGradient-1)">
            <g transform="translate(262.000000, 40.000000)">
                <path d="M47.4829579,0 L7.37418492,0 C3.30805991,0 0,3.2789935 0,7.3093913 L0,40.6906087 C0,44.7211152 3.30800508,48 7.37418492,48 L47.4829579,48 C51.5491926,48 54.8571428,44.7211152 54.8571428,40.6906087 L54.8571429,7.3093369 C54.8571429,3.2789935 51.5491926,0 47.4829579,0 Z M51.453694,7.3093369 L51.453694,15.937981 L35.5620282,15.937981 L35.5620282,3.37354427 L47.4829579,3.37354427 C49.6725153,3.37354427 51.453694,5.13912687 51.453694,7.3093369 Z M22.6986184,3.37354427 L32.1585793,3.37354427 L32.1585793,27.8968903 L28.6318763,24.4011204 C27.96739,23.742364 26.8898076,23.742364 26.2252117,24.4011204 L22.6986184,27.8967815 L22.6986184,3.37354427 Z M7.37418492,3.37354427 L19.2951695,3.37354427 L19.2951695,15.937981 L3.40350372,15.937981 L3.40350372,7.3093369 C3.40350372,5.13912687 5.18473721,3.37354427 7.37418492,3.37354427 Z M47.4829579,44.6264013 L7.37418492,44.6264013 C5.18468237,44.6264013 3.40350372,42.8608731 3.40350372,40.6905543 L3.40350372,19.3115254 L19.2951695,19.3115254 L19.2951695,31.9690449 C19.2951695,32.6511264 19.7098015,33.2662776 20.3456546,33.5274204 C20.9815077,33.7884546 21.7135178,33.6441545 22.2001714,33.1617225 L27.4285714,27.9793164 L32.6570811,33.1617225 C32.9825774,33.4845219 33.4177243,33.6558986 33.8606603,33.6558986 C34.079797,33.6558986 34.3009085,33.61387 34.5114334,33.5274204 C35.1473414,33.2662775 35.5619185,32.6511264 35.5619185,31.9690449 L35.5619185,19.3115254 L51.4535843,19.3115254 L51.4535843,40.6905543 C51.453694,42.8608731 49.6725153,44.6264013 47.4829579,44.6264013 Z" id="Shape"></path>
            </g>
        </g>
    </g>
</svg>