<?xml version="1.0" encoding="UTF-8"?>
<svg width="44px" height="44px" viewBox="0 0 44 44" version="1.1" xmlns="http://www.w3.org/2000/svg" xmlns:xlink="http://www.w3.org/1999/xlink">
    <!-- Generator: Sketch 47.1 (45422) - http://www.bohemiancoding.com/sketch -->
    <title>汽修汽保方案</title>
    <desc>Created with Sketch.</desc>
    <defs></defs>
    <g id="切图" stroke="none" stroke-width="1" fill="none" fill-rule="evenodd">
        <g id="汽修汽保方案" fill="#FFFFFF">
            <path d="M30.4390902,4.12927789 C28.3264213,4.12927789 26.080728,4.83011439 23.9444775,6.15574175 C19.5208125,8.90250979 17.7104717,14.4173386 19.6393251,19.2702664 C19.7953264,19.6620534 19.7064419,20.1092017 19.412579,20.4103424 L5.78906929,34.401521 C4.86334059,35.3578708 4.878457,36.898251 5.82413936,37.8345248 L7.18884849,39.1808365 C7.6405267,39.6255514 8.23913637,39.8701141 8.87644405,39.8707225 C9.53310072,39.8707225 10.1456175,39.6133841 10.5997143,39.1455514 L24.6017388,24.7656275 C24.6785302,24.6865401 24.7680193,24.6196199 24.8647643,24.5685173 C26.8026875,23.5428138 28.9492172,23.0220534 31.2450969,23.0226618 C32.2832917,23.0226618 33.2398579,23.1285173 34.0706555,23.2708747 L28.2490253,13.5723196 C27.3051569,12.0301143 27.7864632,9.99026643 29.3265227,9.03330827 L35.0822454,5.46646419 C33.7114897,4.57825127 32.1551046,4.12866953 30.4390902,4.12927789 Z M8.87644405,42 L8.87644405,42 C7.68103866,41.9993916 6.55637806,41.538251 5.70985933,40.7017491 L4.3505921,39.3560456 C2.57592604,37.5978708 2.54629789,34.7075286 4.28468457,32.9116351 L17.4329345,19.4010648 C15.5300813,13.7523957 17.73103,7.511179 22.833724,4.34403074 C25.3031401,2.81034254 27.9327901,1.99939198 30.4390902,2.00000034 C33.1564153,2.00000034 35.6506223,2.9587836 37.6496158,4.77292807 C37.8981295,4.99802313 38.0263166,5.3271486 37.9954792,5.66053263 C37.9652464,5.99452502 37.7802215,6.29444897 37.4972424,6.47087483 L30.4372762,10.8456276 C29.8894576,11.1863121 29.7183399,11.9120915 30.0557381,12.4638786 L37.1755653,24.3245629 C37.3992881,24.6974906 37.3751019,25.1695819 37.1138904,25.5175667 C36.8526789,25.8643347 36.4064426,26.016426 35.9892298,25.901445 L35.9251362,25.8838024 C34.9975935,25.6276807 33.2731139,25.1513309 31.2450969,25.1513309 C29.3531276,25.1513309 27.5887407,25.5644108 25.9942622,26.3777948 L12.1119596,40.6360456 C11.2557663,41.5151331 10.1069195,42 8.87644405,42 L8.87644405,42 Z" id="Fill-57"></path>
            <path d="M38.9305979,11.9175649 C38.9495153,14.5341404 38.058625,17.0791471 36.4187248,19.0750494 L37.537806,21 C40.2347146,18.0558128 41.4673,13.9492515 40.8388883,9.90685531 C40.7833186,9.55086285 40.5616305,9.24792992 40.2477203,9.09738892 C39.9349924,8.94808185 39.5702417,8.97152676 39.2752489,9.16031999 L33,13.1909938 L34.0747435,15.0400569 L38.9305979,11.9175649" id="Fill-58"></path>
            <path d="M11.2868353,35.7772414 C10.5820236,36.2110641 9.65887016,35.9920527 9.22278665,35.2870158 C8.78850266,34.580779 9.00864385,33.6579308 9.71345558,33.222308 C10.4176675,32.7884854 11.3420205,33.0092969 11.7769044,33.7131337 C12.2111884,34.4181705 11.9922468,35.3428188 11.2868353,35.7772414" id="Fill-59"></path>
            <path d="M24.8996256,19 C24.4981365,19 24.1320553,18.6898479 24.0282322,18.2229005 C23.9052049,17.6713662 24.1956694,17.1095164 24.6775763,16.9685382 L27.8774863,16.0325803 C28.3605935,15.8909144 28.8485018,16.2244482 28.9715291,16.7766703 C29.0951565,17.3282046 28.804692,17.8907421 28.3227851,18.0310326 L25.1228751,18.9676782 C25.0478585,18.9896845 24.973442,19 24.8996256,19" id="Fill-60"></path>
            <path d="M22.8994296,16 C22.4986116,16 22.1319953,15.6898672 22.0281906,15.2236364 C21.9051851,14.6714487 22.1961981,14.1096338 22.6774196,13.9686643 L25.8767627,13.0320769 C26.3585842,12.8917951 26.8482061,13.2246206 26.9718116,13.7768083 C27.0948171,14.3296837 26.8038041,14.8908109 26.3219826,15.0324681 L23.1226395,15.9676802 C23.0476362,15.9896852 22.9732329,16 22.8994296,16" id="Fill-61"></path>
            <path d="M26.9001945,22 C26.498793,21.9993124 26.1315915,21.6892034 26.0283911,21.2230085 C25.9047906,20.6708633 26.1963918,20.1090916 26.6769937,19.9681329 L29.8768062,19.0323051 C30.3598081,18.8913465 30.8488101,19.224834 30.9718105,19.7762917 C31.094811,20.3284369 30.8038099,20.8902086 30.322608,21.0311673 L27.1233954,21.9676827 C27.0477951,21.9889984 26.9739948,21.9993124 26.9001945,22" id="Fill-62"></path>
        </g>
    </g>
</svg>