<?xml version="1.0" encoding="UTF-8"?>
<svg width="44px" height="44px" viewBox="0 0 44 44" version="1.1" xmlns="http://www.w3.org/2000/svg" xmlns:xlink="http://www.w3.org/1999/xlink">
    <!-- Generator: Sketch 47.1 (45422) - http://www.bohemiancoding.com/sketch -->
    <title>木工方案</title>
    <desc>Created with Sketch.</desc>
    <defs></defs>
    <g id="切图" stroke="none" stroke-width="1" fill="none" fill-rule="evenodd">
        <g id="木工方案" fill="#FFFFFF">
            <path d="M36.7540711,23.470217 L35.7927869,24.4362501 L33.6906579,22.3263902 C33.6821938,22.3185017 32.8732641,21.4798976 33.289216,19.9489293 C33.3932039,19.5654288 33.2753106,19.1558356 32.9832979,18.8870211 C32.4216419,18.3700235 31.3799484,17.7553303 30.2318486,17.7553303 C29.468867,17.7553303 28.6587282,18.026572 27.9114657,18.7771895 L26.1811542,20.5132577 L21.94969,16.2656248 C22.4242863,15.7929239 23.0905349,15.1284728 23.8510981,14.3645057 C25.3734337,12.8383918 25.2948381,10.327434 23.6594458,8.25944353 C22.4037306,6.6690084 19.6577225,5.46996231 17.451001,4.71570406 C24.6297987,2.70414647 28.1212554,6.51548681 28.2808649,6.69570781 L28.3316497,6.75032023 L34.7432339,13.1854841 C35.3568838,13.8013909 35.0340375,15.2413385 34.874428,15.6940148 C34.7426293,16.0562772 34.8175974,16.4616227 35.0697077,16.752889 C35.3212135,17.0441552 35.7105639,17.1764387 36.0866134,17.0957336 C37.4880327,16.7990061 38.3042174,17.6145516 38.3562114,17.6685573 L40.4456442,19.7656743 L36.7540711,23.470217 Z M39.8815699,16.1970559 C39.8307851,16.1412298 38.8610368,15.1114822 37.1917879,14.9324749 C37.2945667,13.9306403 37.1857421,12.6332918 36.2389679,11.6836425 L29.8497532,5.27032356 C29.3600424,4.72723335 24.0107075,-0.818961643 13.6246062,3.86678428 C13.2104681,4.05368013 12.9613806,4.48451147 13.0049104,4.93840139 C13.0490449,5.3916845 13.3767279,5.76668981 13.8192814,5.86984661 C15.6100511,6.28732824 20.5712448,7.76793172 22.001684,9.57863696 C22.8003359,10.5889668 23.2193107,11.9961469 22.3553641,12.862664 C20.8427018,14.3808894 19.7079028,15.5052985 19.7066936,15.5065121 C19.5059726,15.7049372 19.3929159,15.9755721 19.3917068,16.2583431 C19.3911022,16.5417209 19.5023451,16.8129626 19.701857,17.0126014 L25.4332872,22.7657168 C25.8292879,23.1631739 26.5318113,23.1637807 26.9296258,22.7657168 L29.4071998,20.2784243 C29.9894115,19.695285 30.6568692,19.884608 31.0982135,20.1303639 C30.7929,22.4362218 32.1550215,23.7906099 32.2076201,23.8409747 L35.0449199,26.6887092 C35.2432226,26.8877411 35.5116566,27 35.7927869,27 C36.0733126,27 36.3423513,26.8877411 36.5406539,26.6887092 L42.5616786,20.6455411 L42.6898498,20.5168985 C42.8887571,20.3178666 43,20.0472317 43,19.7656743 C43,19.4841169 42.8887571,19.2140888 42.6898498,19.0150569 L39.8815699,16.1970559 Z" id="Fill-47"></path>
            <path d="M5.12883243,39.7121358 L3.29587058,37.8861152 C3.08894302,37.6799024 3.08955523,37.3431288 3.29587058,37.136916 L20.9851156,19.5099903 L19.4705039,18 L1.77942218,35.6281458 C0.739886703,36.6677513 0.739886703,38.3577203 1.78125882,39.3961055 L3.61422067,41.2221262 C4.13460062,41.7407087 4.81844109,42 5.50289378,42 C6.18734647,42 6.87241137,41.7407087 7.39462795,41.2221262 L25,23.6745132 L23.484776,22.165133 L5.8806284,39.7109157 C5.67553748,39.9134679 5.3314745,39.914078 5.12883243,39.7121358 Z" id="Fill-49"></path>
        </g>
    </g>
</svg>