<?xml version="1.0" encoding="UTF-8"?>
<svg width="16px" height="16px" viewBox="0 0 16 16" version="1.1" xmlns="http://www.w3.org/2000/svg" xmlns:xlink="http://www.w3.org/1999/xlink">
    <!-- Generator: Sketch 47.1 (45422) - http://www.bohemiancoding.com/sketch -->
    <title>购物车</title>
    <desc>Created with Sketch.</desc>
    <defs></defs>
    <g id="切图" stroke="none" stroke-width="1" fill="none" fill-rule="evenodd">
        <g id="购物车" fill-rule="nonzero" fill="#FFFFFF">
            <g id="购物车-copy" transform="translate(1.000000, 1.000000)">
                <path d="M2.625,12.25 C2.625,13.2125 3.4125,14 4.375,14 C5.3375,14 6.125,13.2125 6.125,12.25 C6.125,11.2875 5.3375,10.5 4.375,10.5 C3.4125,10.5 2.625,11.2875 2.625,12.25 Z M4.375,11.375 C4.85625,11.375 5.25,11.76875 5.25,12.25 C5.25,12.73125 4.85625,13.125 4.375,13.125 C3.89375,13.125 3.5,12.73125 3.5,12.25 C3.5,11.76875 3.89375,11.375 4.375,11.375 Z M7.875,12.25 C7.875,13.2125 8.6625,14 9.625,14 C10.5875,14 11.375,13.2125 11.375,12.25 C11.375,11.2875 10.5875,10.5 9.625,10.5 C8.6625,10.5 7.875,11.2875 7.875,12.25 Z M9.625,11.375 C10.10625,11.375 10.5,11.76875 10.5,12.25 C10.5,12.73125 10.10625,13.125 9.625,13.125 C9.14375,13.125 8.75,12.73125 8.75,12.25 C8.75,11.76875 9.14375,11.375 9.625,11.375 Z M3.5,9.625 C3.01875,9.625 2.625,9.23125 2.625,8.75 L12.6875,7.875 C12.6875,7.875 14,2.58125 14,2.1875 C14,1.925 13.825,1.75 13.5625,1.75 L2.625,1.75 L2.625,0.875 L3.0625,0.875 C3.325,0.875 3.5,0.7 3.5,0.4375 C3.5,0.175 3.325,0 3.0625,0 L0.4375,0 C0.175,0 0,0.175 0,0.4375 C0,0.7 0.175,0.875 0.4375,0.875 L1.75,0.875 L1.75,8.75 C1.75,9.7125 2.5375,10.5 3.5,10.5 L13.5625,10.5 L13.5625,9.625 L3.5,9.625 Z M2.625,2.625 L13.125,2.625 L11.9875,7.0875 L2.625,7.875 L2.625,2.625 L2.625,2.625 Z" id="Shape"></path>
            </g>
        </g>
    </g>
</svg>