<?xml version="1.0" encoding="UTF-8"?>
<svg width="44px" height="44px" viewBox="0 0 44 44" version="1.1" xmlns="http://www.w3.org/2000/svg" xmlns:xlink="http://www.w3.org/1999/xlink">
    <!-- Generator: Sketch 47.1 (45422) - http://www.bohemiancoding.com/sketch -->
    <title>消防安全</title>
    <desc>Created with Sketch.</desc>
    <defs></defs>
    <g id="切图" stroke="none" stroke-width="1" fill="none" fill-rule="evenodd">
        <g id="消防安全" fill="#FFFFFF">
            <path d="M28.1343851,8.85891503 C28.8847603,8.50821886 29.209742,7.61621604 28.8583004,6.86530569 C28.5068589,6.11575199 27.6153643,5.79083233 26.8649891,6.14085017 C26.113257,6.49290299 25.7909892,7.38626247 26.1417523,8.13513783 C26.4918369,8.88536986 27.3846884,9.20893286 28.1343851,8.85891503" id="Fill-66"></path>
            <path d="M30.8650378,4.14038874 C30.1138455,4.49180213 29.7908396,5.38526052 30.1416674,6.13489721 C30.4918167,6.88589071 31.3841544,7.20948953 32.1346682,6.85807613 C32.8858605,6.50734114 33.209545,5.61591796 32.8580386,4.86492447 C32.5078893,4.11460938 31.6155515,3.79168896 30.8650378,4.14038874" id="Fill-67"></path>
            <path d="M36.1349744,4.85779513 C36.8859306,4.50756589 37.2088349,3.61570305 36.8587957,2.86298167 C36.5087566,2.11365399 35.6153426,1.7905743 34.8650648,2.14216102 C34.1154654,2.49103279 33.7912043,3.3842531 34.1405651,4.135617 C34.4926394,4.88494468 35.3840182,5.21006059 36.1349744,4.85779513" id="Fill-68"></path>
            <path d="M34.8654592,6.14057572 C34.1151898,6.49075393 33.7909323,7.38384408 34.1409676,8.13577713 C34.493038,8.88499562 35.3844069,9.20938551 36.1353547,8.85852866 C36.8856241,8.50835045 37.2092032,7.6152603 36.8584896,6.86400589 C36.5084543,6.11410876 35.6150503,5.7917548 34.8654592,6.14057572" id="Fill-69"></path>
            <path d="M36.1353528,10.1407511 C35.3844701,9.79127124 34.4931785,10.1149642 34.1411386,10.8641404 C33.7904554,11.616031 34.1160414,12.5070349 34.8655675,12.8585506 C35.6157719,13.2093876 36.5084201,12.885016 36.8591034,12.1351612 C37.20843,11.3853064 36.8862355,10.4922667 36.1353528,10.1407511" id="Fill-70"></path>
            <path d="M32.1346682,8.1409022 C31.3841544,7.79078942 30.4911381,8.11579722 30.1416674,8.86487572 C29.7908396,9.61666828 30.1138455,10.5082346 30.8650378,10.8583473 C31.6155515,11.2091386 32.5072107,10.8861664 32.8580386,10.1350523 C33.209545,9.38393828 32.8858605,8.49305052 32.1346682,8.1409022" id="Fill-71"></path>
            <path d="M21.0203537,32.4345751 L27.7925001,32.4345751 L27.7925001,23.0501004 L21.0203537,23.0501004 L21.0203537,32.4345751 Z M27.804281,20.9500335 L27.804281,21.0202097 L19.9352726,21.0202097 C19.3363078,21.0202097 18.8501914,21.4743252 18.8501914,22.035155 L18.8501914,33.4495204 C18.8501914,34.0097702 19.3363078,34.4644658 19.9352726,34.4644658 L27.804281,34.4644658 L27.804281,38.6651796 C27.804281,39.3849208 27.1786542,39.9701093 26.4091767,39.9701093 L12.5914434,39.9701093 C11.8219658,39.9701093 11.196339,39.3849208 11.196339,38.6651796 L11.196339,18.0890475 L27.804281,18.0890475 L27.804281,20.9500335 Z M29.9149189,16 L9.08508115,16 C8.48611635,16 8,16.4546955 8,17.0149453 C8,17.5566362 8.45511403,17.9945126 9.02617674,18.024091 L9.02617674,38.6651796 C9.02617674,40.5036806 10.6252763,42 12.5914434,42 L26.4091767,42 C28.3747237,42 29.9744433,40.5036806 29.9744433,38.6651796 L29.9744433,18.024091 C30.545506,17.9945126 31,17.5566362 31,17.0149453 C31,16.4546955 30.5138836,16 29.9149189,16 L29.9149189,16 Z" id="Fill-72"></path>
            <path d="M15.3774015,12.1734191 L24.5533969,12.1734191 C26.707466,12.7553622 28.0473988,13.7080862 28.5636969,15 L31,15 C30.9986431,14.9262872 30.9905017,14.8514659 30.9674345,14.7766447 C30.315447,12.6517209 28.2855337,11.0959929 25.0961544,10.2779471 C24.9808185,10.2485729 24.8607333,10.2336086 24.7399698,10.2336086 L23.7406174,10.2336086 C23.7575786,10.1360638 23.7772535,10.0396276 23.7772535,9.93820318 L23.7772535,8.62190323 L21.4026891,8.62190323 L21.4026891,9.93820318 C21.4026891,10.011916 21.3233108,10.0767611 21.2330774,10.0767611 L18.7669226,10.0767611 C18.6766892,10.0767611 18.5973109,10.011916 18.5973109,9.93820318 L18.5973109,7.07836834 C18.5973109,7.00465555 18.6766892,6.93981045 18.7669226,6.93981045 L21.2330774,6.93981045 L21.2866747,6.95920856 L23.7623277,6.95920856 C23.6843063,5.86958931 22.5859006,5 21.2330774,5 L18.7669226,5 C17.3638943,5 16.2227465,5.93221748 16.2227465,7.07836834 L16.2227465,9.93820318 C16.2227465,10.0396276 16.2424214,10.1360638 16.2593826,10.2336086 L15.1887933,10.2336086 C15.0673513,10.2336086 14.9465877,10.2485729 14.8305733,10.2785014 C11.6913991,11.0910048 9.68658834,12.6461786 9.0332439,14.7760905 C9.0101767,14.8509117 9.00135689,14.9262872 9,15 L11.4356246,15 C11.9512443,13.7025439 13.2681099,12.7498199 15.3774015,12.1734191" id="Fill-73"></path>
        </g>
    </g>
</svg>