<?xml version="1.0" encoding="UTF-8"?>
<svg width="44px" height="44px" viewBox="0 0 44 44" version="1.1" xmlns="http://www.w3.org/2000/svg" xmlns:xlink="http://www.w3.org/1999/xlink">
    <!-- Generator: Sketch 47.1 (45422) - http://www.bohemiancoding.com/sketch -->
    <title>工业防护</title>
    <desc>Created with Sketch.</desc>
    <defs></defs>
    <g id="切图" stroke="none" stroke-width="1" fill="none" fill-rule="evenodd">
        <g id="工业防护" fill="#FFFFFF">
            <path d="M14.2700003,21.8697505 L29.7299997,21.8697505 L29.7299997,15.1302495 L14.2700003,15.1302495 L14.2700003,21.8697505 Z M30.8649998,13 L13.1350002,13 C12.5078315,13 12,13.4765673 12,14.0651248 L12,22.9348752 C12,23.5228241 12.5078315,24 13.1350002,24 L30.8649998,24 C31.4921685,24 32,23.5228241 32,22.9348752 L32,14.0651248 C32,13.4765673 31.4921685,13 30.8649998,13 L30.8649998,13 Z" id="Fill-91"></path>
            <path d="M19.9204392,21 C20.1559931,21 20.3909336,20.9097952 20.5706662,20.7306129 L23.7304012,17.5716039 C24.0898663,17.212012 24.0898663,16.6290558 23.7304012,16.2694639 C23.3709361,15.909872 22.7887989,15.9104856 22.4293338,16.2694639 L19.2695988,19.4284728 C18.9101337,19.7880648 18.9101337,20.3710209 19.2695988,20.7306129 C19.4493314,20.9097952 19.6848853,21 19.9204392,21" id="Fill-92"></path>
            <path d="M24.290099,20.7102071 C24.4834983,20.9029623 24.7369637,21 24.990429,21 C25.2438944,21 25.4966997,20.9029623 25.690099,20.7102071 L27.709901,18.6902385 C28.0966997,18.304068 28.0966997,17.6762934 27.709901,17.2901229 C27.3231023,16.9032924 26.6966997,16.9032924 26.309901,17.2901229 L24.290099,19.3094315 C23.9033003,19.6962621 23.9033003,20.3233765 24.290099,20.7102071" id="Fill-93"></path>
            <path d="M38.7417054,17.4228068 L37.5615852,17.4228068 L37.6641763,15.3787677 C37.6641763,15.1261202 37.6564336,14.8812927 37.6435291,14.640676 L38.7417054,14.640676 L38.7417054,17.4228068 Z M34.7096818,29.176332 C34.6696777,29.4355965 34.2715727,31.6606996 32.1313546,35.1243773 C32.1016742,35.1718991 29.088464,39.8946037 23.6956566,39.8946037 L20.3082148,39.8946037 C14.9147621,39.8946037 11.9021972,35.1718991 11.8738072,35.1267834 C9.72391075,31.6474657 9.33161273,29.4175502 9.29483479,29.1781366 L8.59798961,15.3787677 C8.59798961,12.2254856 9.81553299,10.1339248 9.82585662,10.1164801 L9.89102455,9.98895324 C10.537542,8.46885712 12.0860869,6.70333194 12.1189934,6.66483326 C14.2934085,4.07218812 17.0278806,4.10467137 17.1795089,4.106476 L26.8675926,4.10527292 C26.8863042,4.10346829 29.6846538,4.04090794 31.902299,6.68528569 C31.9177845,6.70333194 33.4656841,8.46885712 34.1122016,9.98895324 L34.1780147,10.1170816 C34.1902741,10.1369325 35.4058818,12.1893931 35.4071722,15.3294413 L34.7096818,29.176332 Z M5.25829456,17.4228068 L5.25829456,14.640676 L6.3648589,14.640676 C6.3506639,14.8969328 6.3409855,15.1580019 6.3409855,15.4280942 L6.44164091,17.4228068 L5.25829456,17.4228068 Z M40.4786566,12.7560455 C40.2883146,12.6194955 40.0528067,12.5352797 39.7940707,12.5352797 L37.3776955,12.5352797 C36.9976568,10.6753124 36.3563012,9.45478412 36.1866064,9.15401322 C35.3974938,7.34096624 33.7179679,5.42926641 33.6637688,5.36851069 C30.7583115,1.90242685 26.9450199,1.998072 26.8243624,2.00107971 L17.2233844,2.00168125 C17.0569158,1.99386121 13.2474955,1.90002069 10.3581689,5.34745673 C10.2865487,5.42926641 8.60637756,7.34096624 7.81661969,9.15401322 C7.64821544,9.45418258 7.01008592,10.669297 6.63069243,12.5352797 L4.2059293,12.5352797 C3.94654804,12.5352797 3.7116854,12.6194955 3.52134343,12.7560455 C3.20840833,12.943125 3,13.2685591 3,13.6409135 L3,18.4321939 C3,18.735371 3.13872381,19.0060648 3.35874622,19.1979566 C3.56457364,19.4000747 3.85363534,19.5282031 4.17624885,19.5282031 L6.54810337,19.5282031 L7.04041159,29.3188974 L7.0455734,29.3826608 C7.05847794,29.4909383 7.38173668,32.0745603 9.91618841,36.1776769 C10.0633002,36.415286 13.5914015,42 20.3082148,42 L23.6956566,42 C30.4124699,42 33.9405712,36.415286 34.0870377,36.1776769 C36.6227799,32.0745603 36.9460386,29.4909383 36.9589432,29.3826608 L37.4551228,19.5282031 L39.8237511,19.5282031 C40.1463647,19.5282031 40.4354264,19.4000747 40.6412538,19.1979566 C40.860631,19.0060648 41,18.735371 41,18.4321939 L41,13.6409135 C41,13.2685591 40.7915917,12.943125 40.4786566,12.7560455 L40.4786566,12.7560455 Z" id="Fill-94"></path>
        </g>
    </g>
</svg>