<?xml version="1.0" encoding="UTF-8"?>
<svg width="44px" height="44px" viewBox="0 0 44 44" version="1.1" xmlns="http://www.w3.org/2000/svg" xmlns:xlink="http://www.w3.org/1999/xlink">
    <!-- Generator: Sketch 47.1 (45422) - http://www.bohemiancoding.com/sketch -->
    <title>金属加工</title>
    <desc>Created with Sketch.</desc>
    <defs></defs>
    <g id="切图" stroke="none" stroke-width="1" fill="none" fill-rule="evenodd">
        <g id="金属加工" fill="#FFFFFF">
            <path d="M10,28 C10.552,28 11,27.5515 11,27 C11,26.447 10.552,26 10,26 C9.448,26 9,26.447 9,27 C9,27.5515 9.448,28 10,28" id="Fill-100"></path>
            <path d="M22.4387549,19.4387848 C21.8537484,20.0243769 21.8537484,20.9756231 22.4387549,21.5606695 C23.024307,22.1462616 23.9754883,22.1468073 24.5610405,21.5601237 C25.1465927,20.9756231 25.146047,20.0243769 24.5610405,19.4387848 C23.9749426,18.8537384 23.024307,18.8537384 22.4387549,19.4387848" id="Fill-101"></path>
            <path d="M30.701682,27.7006948 C34.7108268,23.6977304 35.0604162,17.4170449 31.7760571,13 L30.3838228,14.390088 C32.9205727,18.0312182 32.5720967,23.0818898 29.3239212,26.3250579 C26.0829824,29.5615563 21.0384295,29.9122742 17.3927909,27.3944419 L16,28.7850857 C17.9884289,30.2529875 20.3464874,31 22.7106693,31 C25.604802,31 28.4989347,29.9000463 30.701682,27.7006948 Z" id="Fill-102"></path>
            <path d="M38.1562138,36.8025098 L8.07615967,36.8025098 L8.08037404,31.8317977 C8.50339126,32.1252912 8.99489197,32.2752397 9.48902666,32.2752397 C10.131191,32.2752397 10.7738822,32.0271043 11.2643293,31.5302999 L11.8917434,30.8867487 L11.890163,35.5735726 L38.1562138,35.5735726 L38.1562138,36.8025098 Z M7.03468389,27.2559677 L10.1238159,24.1273274 L10.1259231,24.1342645 L11.6257114,22.6150356 C10.8139187,18.9965279 11.820626,15.0759888 14.5747157,12.2862 C18.4245412,8.38647228 24.4547755,8.01933864 28.7602796,11.1517144 L25.6779959,14.2739512 C23.1188207,12.8310306 19.8226579,13.2035005 17.6512046,15.4031007 C16.3810993,16.6896693 15.6815142,18.4004694 15.6815142,20.2201289 C15.6815142,21.4005063 15.9807343,22.5328574 16.534397,23.5360714 L9.95629475,30.2138483 C9.69974508,30.474257 9.28146902,30.474257 9.02491935,30.2138483 L7.03521068,28.1994158 C6.77866101,27.9390071 6.77866101,27.5158429 7.03468389,27.2559677 Z M30.5476986,4.88642928 L30.6404147,4.84854194 L30.7341844,4.88642928 L31.3542233,5.51503892 L31.3921526,5.60949046 L31.3547501,5.70340837 L28.3867812,8.70984872 C28.0275063,8.51614303 27.661383,8.3432487 27.289465,8.1863631 L30.5476986,4.88642928 Z M13.7355296,33.7058869 L13.7355296,28.9961172 L18.9550248,23.7159029 C18.0331317,22.7825937 17.5253003,21.5408495 17.5253003,20.2201289 C17.5253003,18.8994083 18.0331317,17.6576641 18.9550248,16.7238213 C20.8588657,14.795836 23.9558997,14.7963696 25.858687,16.7232876 L31.4458858,11.0033668 C30.9828321,10.5348445 30.4865902,10.1239536 29.9755981,9.74134485 L32.6580435,7.02412897 C33.0304883,6.64685646 33.2359388,6.14471582 33.2359388,5.60949046 C33.235412,5.07373147 33.0304883,4.57105721 32.6580435,4.19431832 L32.0374778,3.56570868 C31.293115,2.81169728 29.9882412,2.81116365 29.2438784,3.56570868 L25.3134531,7.54708097 C21.1185762,6.53853069 16.5275486,7.66714648 13.2708955,10.9654794 C10.3203108,13.9543102 9.09392963,18.0541471 9.64232431,21.9746862 L5.73086368,25.9352471 C4.75629099,26.9235197 4.75629099,28.5313303 5.73139047,29.5196028 L6.23658788,30.0313487 L6.23237351,38.6701955 L9.60913616,38.6701955 L9.60913616,40.0656235 C9.60913616,40.5816384 10.0216175,40.9994664 10.5310292,40.9994664 C11.0399142,40.9994664 11.4529223,40.5816384 11.4529223,40.0656235 L11.4529223,38.6701955 L34.6667168,38.6701955 L34.6667168,40.0661571 C34.6667168,40.5816384 35.0797249,41 35.5886099,41 C36.0980217,41 36.510503,40.5816384 36.510503,40.0661571 L36.510503,38.6701955 L40,38.6701955 L40,33.7058869 L13.7355296,33.7058869 L13.7355296,33.7058869 Z" id="Fill-103"></path>
        </g>
    </g>
</svg>