<?xml version="1.0" encoding="UTF-8"?>
<svg width="44px" height="44px" viewBox="0 0 44 44" version="1.1" xmlns="http://www.w3.org/2000/svg" xmlns:xlink="http://www.w3.org/1999/xlink">
    <!-- Generator: Sketch 47.1 (45422) - http://www.bohemiancoding.com/sketch -->
    <title>油漆工方案</title>
    <desc>Created with Sketch.</desc>
    <defs></defs>
    <g id="切图" stroke="none" stroke-width="1" fill="none" fill-rule="evenodd">
        <g id="油漆工方案" fill="#FFFFFF">
            <path d="M21.0526825,33.8947121 L20.9830237,33.8427345 L20.8916679,33.7764773 L20.8145864,33.719359 C18.8298813,32.370225 16.7521075,32.6026964 15.1145545,34.3567991 L15.0734444,34.4030649 L11.1788317,39.1290323 C10.7426077,39.6688001 10.1750597,39.9612458 9.49160402,39.9972303 C8.4615672,40.0514927 7.23054759,39.5220061 6.35067689,38.6480963 C5.47708691,37.7679034 4.94779415,36.5364331 5.00260764,35.5060191 C5.03857899,34.8223132 5.33034663,34.2545574 5.87048789,33.8181736 L10.5947255,29.922135 L10.6409744,29.8815811 C12.3938641,28.2428573 12.6262504,26.1643227 11.2776102,24.1788909 L11.2199419,24.1017812 L11.1542799,24.010392 L11.1023212,23.9407077 C10.1978987,22.6703969 10.3383582,20.956277 11.4403378,19.8533228 L25.1385713,33.5565719 C24.0360208,34.6589549 22.3225283,34.7994659 21.0526825,33.8947121 Z M16.3558516,14.0935144 L30.908833,28.6558225 L26.9868137,32.5787067 L12.4315484,18.0181121 L16.3558516,14.0935144 Z M33.2629582,28.3296771 L42,19.5900075 L25.4154936,3 L17.941446,10.476213 L19.3546063,11.8898907 L25.4154936,5.82735538 L26.5111925,6.92345537 L22.1512362,11.285008 L23.5638255,12.6986857 L27.9243527,8.33656188 L29.0503132,9.46293457 L23.2360865,15.2787189 L24.6486758,16.6923966 L30.4634734,10.8766123 L31.5894338,12.0024138 L26.8406444,16.7523708 L28.2538046,18.1660485 L33.0020231,13.4160915 L34.1274126,14.541893 L30.9927662,17.6782583 L32.4059264,19.091936 L35.5405729,15.9555707 L36.6671043,17.0819433 L31.7670067,21.9826927 L33.180167,23.3963704 L38.0802645,18.495621 L39.1742504,19.5900075 L31.9228826,26.842888 L17.0627172,11.9732834 C16.6727421,11.5825943 16.0401031,11.5825943 15.649557,11.9732834 L10.3120934,17.3109877 C10.124814,17.4983357 10.0191839,17.7525121 10.0197548,18.0181121 C10.0197548,18.14263 10.0443067,18.2637208 10.0888427,18.3779574 L10.0288904,18.4373604 C8.2280389,20.2371577 7.99964936,23.0382387 9.48075552,25.1093479 L9.48646526,25.1173444 L9.53214317,25.1778898 C9.56982744,25.231581 9.60694074,25.2835587 9.64576696,25.3338228 C10.4200075,26.4927529 10.3120934,27.4409165 9.29804389,28.3999326 L4.60635179,32.2696968 C3.62884456,33.0602139 3.07328701,34.1443191 3.00648307,35.4003503 C2.92254991,36.9905235 3.6585352,38.7686159 4.92723909,40.0492079 L4.92552617,40.0509215 L4.93751662,40.061774 L4.94836512,40.0737688 L4.95007805,40.0720553 C6.23020141,41.3412237 8.007643,42.0774784 9.59723419,41.9935146 C10.8528057,41.9266862 11.937085,41.3709252 12.7267418,40.3930601 L16.5950897,35.6996501 C17.5537547,34.6852293 18.5015713,34.5772757 19.6600773,35.3517997 C19.710323,35.3906402 19.7622816,35.4283382 19.8159531,35.4654651 L19.8764764,35.511731 L19.88447,35.5168716 C21.9548212,36.9990912 24.7548769,36.7706181 26.5540155,34.968536 L26.6059741,34.9159872 C26.9679715,35.0650659 27.3996278,34.9930969 27.6936793,34.6995089 L33.0282879,29.3623758 C33.3074942,29.0830674 33.3834337,28.6803834 33.2629582,28.3296771 L33.2629582,28.3296771 Z" id="Fill-90"></path>
        </g>
    </g>
</svg>