<?xml version="1.0" encoding="UTF-8"?>
<svg width="44px" height="44px" viewBox="0 0 44 44" version="1.1" xmlns="http://www.w3.org/2000/svg" xmlns:xlink="http://www.w3.org/1999/xlink">
    <!-- Generator: Sketch 47.1 (45422) - http://www.bohemiancoding.com/sketch -->
    <title>泥工</title>
    <desc>Created with Sketch.</desc>
    <defs></defs>
    <g id="切图" stroke="none" stroke-width="1" fill="none" fill-rule="evenodd">
        <g id="泥工" fill="#FFFFFF">
            <path d="M39.6321528,8.01620928 L39.5558043,8.09068436 L36.113863,11.5328097 C34.1801179,13.4660325 29.7700525,16.3905874 29.713104,16.4281378 L29.6711749,16.4556748 L29.3670324,16.1521419 L29.2631484,16.0607692 L27.9433204,14.7408705 L27.8475718,14.6313484 L27.5459326,14.3309447 L27.5816036,14.274619 C27.6110166,14.2301843 30.5329118,9.82301217 32.469786,7.88728604 L35.8848175,4.47019432 C36.0043467,4.35816879 35.9749338,4.37882154 35.9749338,4.37882154 C35.9949596,4.35942047 36.1726889,4.19044341 36.5125024,4.19044341 C37.0613356,4.19044341 37.7891497,4.61226022 38.5645252,5.37828958 L38.6102091,5.42522765 C39.3855846,6.20690303 39.8117595,6.94038865 39.8098821,7.49300623 C39.8086305,7.79153237 39.6765851,7.966142 39.6321528,8.01620928 Z M40.1741021,3.89129142 L40.138431,3.85436681 L40.1365536,3.85248928 C38.903087,2.62333761 37.684014,2 36.5125024,2 C35.2909262,2 34.5674927,2.67590825 34.4116666,2.846137 L30.9209124,6.33770379 C28.8294638,8.42863848 25.8787814,12.877742 25.7623812,13.0542291 C24.9187927,14.2940201 25.4432194,15.4167788 26.0358591,15.9193291 L26.2023239,16.0845511 L26.2949434,16.1903182 L27.5722165,17.4670338 L22.2246915,22.8167225 C22.0188008,23.0219983 21.9036522,23.3004975 21.9036522,23.5908878 C21.9036522,23.881278 22.0188008,24.1597772 22.2246915,24.3656789 L28.6761409,30.8149701 L8.86620468,39.6049066 C7.55951863,40.0573896 6.54070402,39.7663736 5.37607627,38.6148262 C4.22271306,37.4470069 3.93233838,36.4293895 4.38291978,35.120756 L13.1717602,15.30976 L18.8684859,21.0086679 L15.5047706,24.373189 C14.3639235,25.5134712 14.3507816,27.3584504 15.4759834,28.48559 C15.6900096,28.6996276 15.9703714,28.8066464 16.2513589,28.8066464 C16.5310949,28.8066464 16.8114566,28.7002535 17.024857,28.4868417 C17.4535351,28.0587665 17.4535351,27.3659605 17.0261086,26.9372594 C16.7532565,26.6650186 16.7657727,26.2094064 17.0536441,25.9221454 L25.1822577,17.7511656 L23.63401,16.2015834 L20.3954562,19.4378071 L13.5923029,12.6330381 C13.3369734,12.377695 12.9721277,12.2656695 12.6172948,12.3301311 C12.2630878,12.3964703 11.963326,12.6330381 11.816887,12.9628563 L2.3722003,34.2721157 L2.34153573,34.3503458 C1.59244416,36.4713208 2.07369012,38.3632381 3.80404785,40.1331164 L3.80154462,40.1362456 L3.83721564,40.170041 L3.85473825,40.1894421 L3.85598987,40.1906937 L3.85786729,40.1894421 C5.08444998,41.3973151 6.37361342,42 7.75915122,42 C8.36555868,42 8.99011456,41.8854711 9.6359479,41.6564133 L9.71417383,41.6251213 L31.0235449,32.1699158 C31.3533454,32.023469 31.5899006,31.7236912 31.6562362,31.3688394 C31.721946,31.0139875 31.6093007,30.6491223 31.3533454,30.3937791 L24.5476889,23.5902619 L29.4715423,18.6648935 L29.6254909,18.6761586 C30.0760723,18.6761586 30.5203956,18.529086 30.9340544,18.2468317 C31.1224224,18.1229152 35.5731654,15.1714491 37.6627366,13.0811403 L41.104052,9.64026661 L41.1228262,9.62274306 C41.3237104,9.43311325 41.9814341,8.7221579 41.9995825,7.53869262 C42.0183568,6.36023406 41.4038138,5.13358576 40.1741021,3.89129142 L40.1741021,3.89129142 Z" id="Fill-40"></path>
        </g>
    </g>
</svg>