<?xml version="1.0" encoding="UTF-8"?>
<svg width="44px" height="44px" viewBox="0 0 44 44" version="1.1" xmlns="http://www.w3.org/2000/svg" xmlns:xlink="http://www.w3.org/1999/xlink">
    <!-- Generator: Sketch 47.1 (45422) - http://www.bohemiancoding.com/sketch -->
    <title>水电方案</title>
    <desc>Created with Sketch.</desc>
    <defs></defs>
    <g id="切图" stroke="none" stroke-width="1" fill="none" fill-rule="evenodd">
        <g id="水电方案" fill="#FFFFFF">
            <path d="M26.6391268,29.8931595 C24.6445025,29.3077055 23.355601,30.5889322 22.9584268,31.6172996 C18.8832879,40.4236853 13.4891585,40.1025594 13.2697826,40.0850832 L13.1483327,40.0812602 C12.3118597,40.1063823 11.6767091,39.9272509 11.3129063,39.5635267 C11.105566,39.3570886 11.051953,39.1572041 11.0514059,39.1544735 C10.9578566,38.7110139 10.9720805,38.3795115 11.1000953,38.0452785 L11.1476906,37.9688199 C16.5319727,36.8132037 20.701208,29.5141436 22.1077299,26.7479827 C25.2238517,28.8227399 28.5407489,29.6064399 29.2847668,29.76318 L29.2727312,29.8035938 C29.1923116,30.0815752 29.1146274,30.2323077 29.0670321,30.3065817 C28.7048705,30.3327961 27.6008793,30.1454727 26.6391268,29.8931595 Z M32.4528604,18.0218785 C32.4528604,16.8722697 32.0945283,15.7794587 31.4391361,14.8614101 L32.2641206,14.0367501 C33.5557575,14.7483606 35.2139325,14.5610372 36.3075293,13.4693184 C37.400032,12.3775997 37.5882248,10.7222722 36.87539,9.43394581 L39.1375325,7.17459588 L39.9307868,7.96648793 C37.430668,14.4894939 33.1859368,19.8612526 32.0874164,21.1899928 L31.4199886,21.2080152 C32.0874164,20.2845052 32.4528604,19.18241 32.4528604,18.0218785 Z M32.8582407,12.1170945 C32.5781399,11.8374747 32.4233185,11.4655585 32.4233185,11.0712509 C32.4233185,10.6763971 32.5781399,10.3055732 32.8576937,10.0259534 C33.1377945,9.74633357 33.5098034,9.59287035 33.9047894,9.59287035 C34.3003224,9.59287035 34.6723313,9.74578744 34.9524321,10.0264995 C35.5301401,10.6026692 35.5301401,11.5409248 34.9535263,12.1176406 C34.3763654,12.6943565 33.4359487,12.6938104 32.8582407,12.1170945 Z M7.03370954,33.8056523 L7.01675031,33.9159711 L6.94836632,33.9012255 C6.61410536,34.0284744 6.28148562,34.0426738 5.84328099,33.9503774 C5.83507491,33.948739 5.63594072,33.895218 5.42914753,33.6876877 C5.0669859,33.3239635 4.8875463,32.6904499 4.91271161,31.8554134 L4.90942918,31.7434562 C4.8913758,31.515719 4.57133871,26.1303069 13.3874031,22.0621663 C14.4169925,21.6656742 15.7009704,20.3800784 15.1216212,18.4150939 C14.8907568,17.5390974 14.6702868,16.3599975 14.6998287,15.9651437 C14.7742305,15.9176302 14.9252224,15.8389871 15.2047761,15.7592518 L15.2447124,15.747783 C15.401722,16.4905231 16.1867703,19.8006319 18.2656437,22.9114023 C15.4936301,24.3155088 8.18201355,28.4775842 7.03370954,33.8056523 Z M30.7607669,28.4295245 C30.5293555,28.1974182 30.2251835,28.0303017 29.8591923,27.9309056 C29.7678313,27.9106987 28.9401115,27.7490435 27.7376473,27.3459978 C28.7251122,25.5481297 29.5944095,23.8567576 29.9494592,23.1593464 L32.5688397,23.0894415 C32.8358108,23.0823418 33.0880109,22.963831 33.2647152,22.7628543 C33.4966737,22.4968878 38.9931055,16.1612053 41.9423704,8.05059233 C42.0692911,7.70215983 41.9828537,7.311129 41.7197121,7.04898542 L37.9449157,3.28012542 C37.6823211,3.01798184 37.2906176,2.93060065 36.9410387,3.05730338 C28.8164732,6.00204952 22.4693445,11.4879499 22.2034675,11.7200562 C22.002145,11.8953647 21.8834304,12.1471318 21.8757714,12.4141906 L21.8046521,15.0793169 C21.2515623,15.3217997 20.2340085,15.7892891 18.8734406,16.5118223 C19.0381092,17.0322865 19.256938,17.6510546 19.5425096,18.3222514 C20.3341227,17.8973603 21.0168685,17.5565737 21.5628463,17.2955224 C21.4567143,18.0923296 21.5245512,18.9071592 21.7690924,19.6793905 C21.2231146,19.9590103 20.4457254,20.3757094 19.3225867,20.9819164 C17.6616762,18.1223669 17.1031158,15.2808398 17.097098,15.2469796 C16.9811187,14.8084352 16.8126206,14.5053317 16.580115,14.2732254 C15.9422291,13.6369811 15.0838732,13.7500305 14.6166738,13.9395385 C13.0684602,14.4021127 12.8250132,15.2508025 12.8064127,15.6729629 C12.6920747,16.6030264 13.1302793,18.3697649 13.2774417,18.9284584 C13.5340184,19.7995396 13.0115647,20.1528873 12.6898864,20.2812284 C2.89784563,24.7868211 2.95966476,31.0728056 3.00671295,31.8483136 C2.96841791,33.5544314 3.56800877,34.5243626 4.08170932,35.0393655 C4.6944299,35.6537645 5.34216309,35.8006741 5.44391847,35.8192426 C6.25030252,35.989636 6.94563096,35.9481299 7.63111211,35.6870786 C8.46484975,35.3686834 8.83849989,34.6876562 8.91454289,34.1693765 C10.139437,28.674738 19.9982205,24.1937213 20.0972405,24.1489384 C20.3647587,24.0293354 20.5627988,23.7934062 20.6344652,23.5094173 C20.7050375,23.2254285 20.6421242,22.9250556 20.4632317,22.6929493 L20.3828121,22.5831767 C21.2209263,22.1353481 22.0727173,21.6968037 22.6744965,21.3893312 C22.8085291,21.5602706 22.9513149,21.726841 23.1083245,21.883581 C23.287217,22.0621663 23.477051,22.2221832 23.6729028,22.3718234 C23.5333994,22.6689195 23.3517715,23.0424741 23.1280191,23.4771955 C23.6477375,23.8753261 24.191527,24.2259431 24.7358636,24.5356002 L26.2397643,21.4952809 C25.5717895,21.355471 24.9579748,21.0266992 24.4645159,20.5340878 C23.3659954,19.4374538 23.1406018,17.8006949 23.7784876,16.4779621 L23.7790347,12.8947871 C25.1095137,11.7981532 30.4910604,7.56234992 37.0258348,5.06597851 L37.7835295,5.82291808 L35.5170104,8.08663707 C35.0268339,7.82176283 34.4764795,7.68140679 33.9042423,7.68140679 C32.997197,7.68140679 32.1448589,8.03420835 31.5042377,8.67427558 C30.8625223,9.3143428 30.5085667,10.1657633 30.5085667,11.0712509 C30.5085667,11.6425054 30.6497113,12.1913685 30.9150412,12.6801571 L29.4932012,14.1006476 L28.6829876,14.9051006 C28.974577,15.0634791 29.2492071,15.2639097 29.4953895,15.5096693 C30.1677409,16.180866 30.5381086,17.0732465 30.5381086,18.0218785 C30.5381086,18.9705106 30.1677409,19.8623449 29.4953895,20.5335416 C29.317044,20.7121269 29.1217393,20.8677747 28.9143991,21.0021233 L28.7710662,21.2779202 L25.9355923,26.6496789 C24.7768939,26.1423218 23.5033105,25.4602024 22.3265587,24.5530764 C22.0951473,24.3744911 21.7931636,24.3116859 21.5086861,24.3832292 C21.2247558,24.4536803 20.9884207,24.6513803 20.8680649,24.918439 C20.8237521,25.0178351 16.3350268,34.8591418 10.831483,36.0824785 C10.3106705,36.1583909 9.62792471,36.5313994 9.31007591,37.3653436 C9.04966966,38.0485553 9.00754512,38.7426896 9.17330792,39.5274819 C9.19683201,39.651454 9.34344729,40.3013516 9.95890323,40.9157506 C10.474245,41.4302074 11.4463919,42.0320453 13.1554446,41.9932699 C13.933928,42.0402373 20.2296319,42.1024964 24.7117924,32.3862541 C24.8704433,31.9924926 25.2254929,31.47039 26.1248792,31.734172 C26.6588214,31.874528 28.4264109,32.3114339 29.3580744,32.1967461 C29.7815081,32.1781776 30.6327521,31.9367871 31.0955749,30.3895939 C31.2843147,29.9231968 31.3986528,29.066315 30.7607669,28.4295245 Z" id="Fill-69"></path>
        </g>
    </g>
</svg>