<?xml version="1.0" encoding="UTF-8"?>
<svg width="44px" height="44px" viewBox="0 0 44 44" version="1.1" xmlns="http://www.w3.org/2000/svg" xmlns:xlink="http://www.w3.org/1999/xlink">
    <!-- Generator: Sketch 47.1 (45422) - http://www.bohemiancoding.com/sketch -->
    <title>物业维修</title>
    <desc>Created with Sketch.</desc>
    <defs></defs>
    <g id="切图" stroke="none" stroke-width="1" fill="none" fill-rule="evenodd">
        <g id="物业维修" fill="#FFFFFF">
            <path d="M39.9270092,10.8502097 L39.063059,16.057004 C38.8132281,17.5614515 37.3415497,18.6435669 35.8431452,18.3848515 L34.7973414,18.2058772 L34.7415652,18.1976078 L34.685789,18.186385 L34.1320939,18.0918771 L33.9874244,18.0777009 L33.9252572,18.0771102 C32.8318112,18.0771102 32.0195702,18.7865101 31.8057614,19.9288743 C31.7941414,19.9926671 31.7877503,20.0570506 31.7877503,20.1220248 L31.7877503,29.7145761 C31.7877503,30.2650845 32.2560381,30.7210851 32.79637,30.7488468 L33.5528348,30.790194 L33.6643872,30.7907847 L33.7608336,30.7890127 C34.4568741,30.7890127 34.9135418,30.9744844 34.978614,31.1256971 L34.978614,32.8032122 L21.5028506,32.8032122 C22.2476954,32.2273047 23.2818792,31.6886097 24.7163734,31.3259357 C25.1695551,31.2113448 25.4879442,30.7972821 25.4879442,30.32238 L25.4879442,22.3559551 L25.4914303,22.1285455 C25.4914303,17.7652342 21.8072957,16.113118 21.3634101,15.9305997 L17.6194324,14.1816129 C17.4521038,14.107188 17.2923282,14.030991 17.1395246,13.953022 L18.5385778,5.51760171 L23.0889864,5.07223325 C25.1712981,5.31322839 37.5013253,7.55188413 37.6378608,7.57669246 C38.3693425,7.70132474 39.0113498,8.11184341 39.4453584,8.73323282 C39.879367,9.35344087 40.0507626,10.1053693 39.9270092,10.8502097 Z M34.9873291,37.6945864 L34.9844241,37.7483378 C34.965251,38.4016236 34.4446731,38.9326398 33.8241628,38.9326398 L21.4023373,38.9326398 C20.7609109,38.9326398 20.239752,38.3856754 20.239752,37.7123066 L20.239752,34.9018781 L34.9873291,34.9018781 L34.9873291,37.6945864 Z M22.139048,22.3276028 C21.881664,22.3772194 21.7027154,22.3884422 21.5830289,22.3890329 L21.603945,22.3276028 C22.2697734,21.1066789 22.2715164,19.8757136 22.0286576,18.8018676 C22.7438712,19.475827 23.4579228,20.5390409 23.4579228,22.1114159 L23.4579228,22.116732 L22.139048,22.3276028 Z M41.1023765,7.53475458 C40.3534648,6.46327133 39.2425887,5.75446212 37.9853001,5.53945666 C37.4577501,5.44376741 25.0411536,3.18975413 23.1935668,3.00487306 C23.1273326,2.99837565 23.0616793,2.99837565 22.9966071,3.00487306 L17.5683042,3.5358893 C17.1110555,3.58078055 16.7397952,3.93223178 16.6631029,4.39295776 L15.0142188,14.3310535 C14.9450796,14.7474789 15.1321623,15.164495 15.4865736,15.3848166 C15.876426,15.626993 16.3191496,15.8591281 16.7862753,16.0676361 L19.1893001,17.1899173 L19.1991772,17.2082282 C19.8888267,18.5094838 20.5610462,20.0097966 19.8103914,21.3523994 L19.7778553,21.4167829 C19.4867732,22.0340376 19.3374557,23.0068782 19.8748827,23.7168688 C20.247305,24.2100819 20.8312122,24.4563931 21.602202,24.4563931 C21.874111,24.4563931 22.1686791,24.425678 22.4859062,24.3648386 L23.4567608,24.2100819 L23.4544368,29.5385551 C20.5453591,30.4617791 19.0794907,32.070776 18.3532381,33.3064667 C18.2463337,33.4883944 18.2062445,33.6945398 18.2184456,33.8989131 C18.2033395,34.0631205 18.2056635,34.1605818 18.2062445,34.1605818 L18.2062445,37.7123066 C18.2062445,39.5250862 19.6395768,41 21.4023373,41 L33.8241628,41 C35.499192,41 36.9087031,39.6249101 37.0127025,37.9137266 L37.0208365,37.7790528 L37.0208365,33.868198 L37.0121215,33.7766435 L37.0121215,31.1256971 C37.0121215,29.6578713 35.791436,28.7405541 33.8212578,28.7216525 L33.8212578,20.2360249 L33.8456599,20.1521492 L33.886911,20.1462424 L34.2715344,20.2123979 C34.4010979,20.2637866 34.5382144,20.2856416 34.6677779,20.2797348 L35.504421,20.4238594 C35.7699389,20.4693413 36.0395239,20.4923776 36.3067849,20.4923776 L36.3073659,20.4923776 C38.6720446,20.4923776 40.6741779,18.7717432 41.0680974,16.4013671 L41.9320475,11.1939821 C42.1458563,9.90513071 41.8512882,8.60564716 41.1023765,7.53475458 L41.1023765,7.53475458 Z" id="Fill-60"></path>
            <path d="M31.8724683,10.725429 C31.7274074,10.1946006 31.2000621,9.8871887 30.6923491,10.0386091 C30.1857267,10.1906008 29.8923329,10.7437137 30.0368485,11.2751134 L31.1275317,15.2748965 C31.2475068,15.7137298 31.6297913,16 32.0447963,16 C32.1315056,16 32.2198509,15.9874293 32.3076509,15.961145 C32.8142733,15.8097246 33.1076671,15.2560404 32.9631515,14.725212 L31.8724683,10.725429" id="Fill-61"></path>
            <path d="M34.8722063,10.725429 C34.7271418,10.1946006 34.199238,9.8871887 33.6920577,10.0386091 C33.1854228,10.1906008 32.8920217,10.7437137 33.0370862,11.2751134 L34.1277965,15.2748965 C34.2472293,15.7143012 34.6295233,16 35.0445386,16 C35.1317954,16 35.2201429,15.9880007 35.3073998,15.9617164 C35.8145801,15.8097246 36.1079811,15.2566118 35.9629167,14.725212 L34.8722063,10.725429" id="Fill-62"></path>
            <path d="M14.6720202,5.19279467 L15,3.11464958 C12.9332702,2.90815567 9.21978463,2.81031117 6.95306712,4.37162122 C6.72450977,4.52949302 6.56737659,4.77800603 6.51823676,5.06013434 L6.3765312,5.86930233 L3.21501167,5.13756956 C2.67561632,5.01391332 2.14250631,5.37107575 2.02365648,5.93773345 C1.90480666,6.50439116 2.24535711,7.06504613 2.78532385,7.18930264 L6.01541059,7.93664252 L5.81827988,9.06395519 C5.76742587,9.35628814 5.83656447,9.65762518 6.00855387,9.89353247 C7.62274015,12.1013365 11.240803,13.489768 13.1275439,13.9627831 L13.2795346,14 L13.6080857,11.9230555 L13.588087,11.9182533 C11.951045,11.5082668 9.20092865,10.4037645 7.87129627,8.94990332 L8.40154932,5.91492308 C10.2688629,4.91486828 13.4246685,5.0787428 14.6720202,5.19279467" id="Fill-63"></path>
        </g>
    </g>
</svg>