<?xml version="1.0" encoding="UTF-8"?>
<svg width="44px" height="44px" viewBox="0 0 44 44" version="1.1" xmlns="http://www.w3.org/2000/svg" xmlns:xlink="http://www.w3.org/1999/xlink">
    <!-- Generator: Sketch 47.1 (45422) - http://www.bohemiancoding.com/sketch -->
    <title>道路安全</title>
    <desc>Created with Sketch.</desc>
    <defs></defs>
    <g id="切图" stroke="none" stroke-width="1" fill="none" fill-rule="evenodd">
        <g id="道路安全" fill="#FFFFFF">
            <path d="M7.23827258,39.7757137 L36.7623669,39.7757137 L36.7623669,38.1869378 L7.23827258,38.1869378 L7.23827258,39.7757137 Z M37.8808637,35.9626515 L34.2836399,35.9626515 L26.4957304,3.85984552 C26.3748636,3.3616054 25.9272091,3.01016817 25.4111274,3.00889715 L22.1924914,3 L22.1892939,3 L22.094647,3.00953266 L22,3 L21.997442,3 L18.7781665,3.00889715 C18.2627243,3.01016817 17.8144303,3.3616054 17.6935636,3.85984552 L10.3680172,34.0561205 L12.6702404,34.0561205 L19.6632434,5.23064138 L22.0031975,5.22428627 L22.094647,5.21475362 L22.1860964,5.22428627 L24.5260505,5.23064138 L25.8351202,10.6248533 L20.3385622,10.6248533 L19.8007373,12.8491396 L26.3742241,12.8491396 L26.9964639,15.4127884 L19.1804161,15.4127884 L18.6425911,17.6370747 L27.5362074,17.6370747 L29.0767784,23.9883653 L17.1071361,23.9883653 L16.5693112,26.2126515 L29.6165218,26.2126515 L30.2541098,28.8423934 L15.9336418,28.8423934 L15.3951774,31.0666797 L30.7938532,31.0666797 L31.9814167,35.9626515 L6.11913629,35.9626515 C5.50137306,35.9626515 5,36.4608917 5,37.0747947 L5,40.8878569 C5,41.5017599 5.50137306,42 6.11913629,42 L37.8808637,42 C38.4992664,42 39,41.5017599 39,40.8878569 L39,37.0747947 C39,36.4608917 38.4992664,35.9626515 37.8808637,35.9626515 L37.8808637,35.9626515 Z" id="Fill-54"></path>
        </g>
    </g>
</svg>