<?xml version="1.0" encoding="UTF-8"?>
<svg width="28px" height="28px" viewBox="0 0 28 28" version="1.1" xmlns="http://www.w3.org/2000/svg" xmlns:xlink="http://www.w3.org/1999/xlink">
    <!-- Generator: Sketch 47.1 (45422) - http://www.bohemiancoding.com/sketch -->
    <title>Artboard</title>
    <desc>Created with Sketch.</desc>
    <defs></defs>
    <g id="切图" stroke="none" stroke-width="1" fill="none" fill-rule="evenodd">
        <g id="Artboard" fill-rule="nonzero">
            <g id="90-皇冠-copy-2" transform="translate(1.000000, 2.000000)">
                <path d="M23.9404069,4.18244445 C23.2299248,4.21907127 22.5773337,4.66905796 22.2905095,5.31787599 C21.9721082,6.04256386 22.1273617,6.78294895 22.553651,7.3140379 L22.351032,8.15907105 C21.9378998,9.88576418 20.3879961,11.102298 18.601265,11.102298 C16.5908637,11.102298 14.9199149,9.56658757 14.7593985,7.57565807 L14.5673052,5.1844497 C15.4935634,4.5722585 16.0408978,3.43682696 15.7751249,2.20197975 C15.5461917,1.14241806 14.6830875,0.286920096 13.6147328,0.0645429501 C11.7806363,-0.320038702 10.1623158,1.06654821 10.1623158,2.82725196 C10.1623158,3.8109438 10.670179,4.67952277 11.4385523,5.1844497 L11.2464589,7.57565807 C11.0859426,9.56658757 9.41499381,11.102298 7.40459242,11.102298 C5.62049277,11.102298 4.06795767,9.88314798 3.65482545,8.15907105 L3.45220646,7.3140379 C3.87849576,6.78556515 4.03374927,6.04256386 3.715348,5.31787599 C3.43115514,4.66905796 2.77856411,4.21645507 2.06545053,4.18244445 C0.765531314,4.1170394 -0.179146823,5.24723854 0.0287349954,6.44022652 C0.144517274,7.09950936 0.583963649,7.6227497 1.1549808,7.87390506 L2.88118931,20 L23.1167739,20 L23.1167739,19.9947676 L24.8429824,7.87390506 C25.416631,7.6227497 25.8560774,7.09950936 25.9692282,6.44022652 C26.1850043,5.24723854 25.2403262,4.1170394 23.9404069,4.18244445 L23.9404069,4.18244445 Z" id="Shape" fill="#F9C85D"></path>
                <path d="M20.0351105,24 L5.96488947,24 C4.32639792,24 3,22.6578947 3,21 L23,21 C23,22.6578947 21.6710013,24 20.0351105,24 Z" id="Shape" fill="#83C6EF"></path>
                <path d="M0,6 C2.8844766e-16,7.1045695 0.8954305,8 2,8 C3.1045695,8 4,7.1045695 4,6 C4,4.8954305 3.1045695,4 2,4 C0.8954305,4 2.8844766e-16,4.8954305 0,6 Z" id="Shape" fill="#F9C85D"></path>
                <path d="M23.9405683,4.17844061 C23.2301418,4.21507064 22.5776018,4.66509681 22.2908,5.31397174 C21.9724237,6.03872318 22.1276651,6.77917321 22.553921,7.31030874 L22.3513178,8.15541601 C21.938218,9.8822606 20.3884357,11.0989011 18.6018446,11.0989011 C16.5916007,11.0989011 14.9207828,9.56305599 14.760279,7.57195186 L14.5682007,5.18053375 C15.4943864,4.56828885 16.0416779,3.43275772 15.7759258,2.1978022 C15.5470106,1.13814757 14.683974,0.282574568 13.615703,0.0601779173 C13.4078374,0.0156985871 13.2026031,0 13,0 L13,20 L23.1169998,20 L23.1169998,19.9947671 L24.8430731,7.87284144 C25.4166767,7.62166405 25.8560886,7.09837781 25.9692306,6.43903715 C26.1849898,5.2433281 25.2403857,4.11302983 23.9405683,4.17844061 L23.9405683,4.17844061 Z" id="Shape" fill="#FFB103"></path>
                <path d="M22,6 C22,7.1045695 22.8954305,8 24,8 C25.1045695,8 26,7.1045695 26,6 C26,4.8954305 25.1045695,4 24,4 C22.8954305,4 22,4.8954305 22,6 Z" id="Shape" fill="#F9C85D"></path>
                <path d="M10,3 C10,4.65685425 11.3431458,6 13,6 C14.6568542,6 16,4.65685425 16,3 C16,1.34314575 14.6568542,1.95204048e-16 13,0 C11.3431458,-1.95204048e-16 10,1.34314575 10,3 L10,3 Z" id="Shape" fill="#F9C85D"></path>
                <path d="M13,21 L13,24 L20.1053316,24 C21.7048114,24 23,22.6894737 23,21.0710526 L23,21 L13,21 Z" id="Shape" fill="#429BCF"></path>
                <path d="M3.58360246,4.87218045 C3.35701636,6.00250627 2.38816543,6.98245614 1,7.5914787 C1.32815918,7.84461153 1.73966038,8 2.19283259,8 C3.25544328,8 4.11751224,7.17042607 4.11751224,6.14786967 C4.11751224,5.65413534 3.91176164,5.20551378 3.58360246,4.87218045 L3.58360246,4.87218045 Z M25.4739035,4.88721805 C25.2108553,6.00250627 24.2263777,6.95989975 22.8356079,7.55137845 C23.1715804,7.82706767 23.6013126,8 24.0779248,8 C25.1405355,8 26,7.17293233 26,6.15037594 C25.9973956,5.65914787 25.7968538,5.21804511 25.4739035,4.88721805 L25.4739035,4.88721805 Z M15.1134493,1 C15.1733514,1.16541353 15.2072091,1.33834586 15.2072091,1.51378446 C15.2072091,2.80200501 13.5377644,3.84711779 11.4802584,3.84711779 C11.1078237,3.84711779 10.7484113,3.81203008 10.4098344,3.74686717 C10.7614335,4.87468672 11.8474841,5.69423559 13.1340765,5.69423559 C14.7045526,5.69423559 15.9781227,4.46867168 15.9781227,2.95739348 C15.9755183,2.19047619 15.6447547,1.4962406 15.1134493,1 Z" id="Shape" fill="#FFB103"></path>
                <path d="M1.01423571,5.90361292 C1.056522,6.00904968 1.18819009,6.02954594 1.35963867,5.95738045 C1.53108725,5.88521497 1.71626719,5.73135225 1.8454185,5.55375462 C1.97456982,5.376157 2.02806982,5.20180786 1.98576429,5.09638708 C1.943478,4.99095032 1.81180991,4.97045406 1.64036133,5.04261955 C1.46891275,5.11478503 1.28373281,5.26864775 1.1545815,5.44624538 C1.02543018,5.623843 0.971930178,5.79819214 1.01423571,5.90361292 L1.01423571,5.90361292 Z" id="Shape" fill="#F7EAD0"></path>
                <path d="M24.3816473,5.79502806 C24.5551698,5.93925294 24.7380987,6.01628661 24.8615036,5.9971016 C24.9849085,5.97791659 25.0300338,5.86542872 24.9798757,5.70202512 C24.9297176,5.53862152 24.7918992,5.3491369 24.6183527,5.20497194 C24.4448302,5.06074706 24.2619013,4.98371339 24.1384964,5.0028984 C24.0150915,5.02208341 23.9699662,5.13457128 24.0201243,5.29797488 C24.0702824,5.46137848 24.2081008,5.6508631 24.3816473,5.79502806 L24.3816473,5.79502806 Z" id="Shape" fill="#F7EAD0"></path>
                <path d="M12,1.5 C12,1.77614237 12.4477153,2 13,2 C13.5522847,2 14,1.77614237 14,1.5 C14,1.22385763 13.5522847,1 13,1 C12.4477153,1 12,1.22385763 12,1.5 Z" id="Shape" fill="#F7EAD0"></path>
                <path d="M14.3223214,15 L12.6776786,15 C12.3053571,15 12,14.7747036 12,14.5 C12,14.2252964 12.3053571,14 12.6776786,14 L14.3223214,14 C14.6946429,14 15,14.2252964 15,14.5 C15,14.7747036 14.6946429,15 14.3223214,15 Z" id="Shape" fill="#DA3329"></path>
                <path d="M14.1320755,14 L13,14 L13,15 L14.1320755,15 C14.6089194,15 15,14.7751479 15,14.5009862 C15,14.2248521 14.6089194,14 14.1320755,14 L14.1320755,14 Z" id="Shape" fill="#C11B16"></path>
            </g>
        </g>
    </g>
</svg>