<?xml version="1.0" encoding="UTF-8"?>
<svg width="32px" height="32px" viewBox="0 0 32 32" version="1.1" xmlns="http://www.w3.org/2000/svg" xmlns:xlink="http://www.w3.org/1999/xlink">
    <!-- Generator: Sketch 47.1 (45422) - http://www.bohemiancoding.com/sketch -->
    <title>待评价</title>
    <desc>Created with Sketch.</desc>
    <defs></defs>
    <g id="切图" stroke="none" stroke-width="1" fill="none" fill-rule="evenodd">
        <g id="待评价" fill-rule="nonzero" fill="#1368C3">
            <g id="Shape">
                <path d="M30.4058415,4.00153446 C29.6816156,3.85607349 28.953971,3.78230862 28.243291,3.78230862 C25.7371565,3.78230862 23.8654575,4.68232416 22.7785219,5.39256162 C21.9135469,3.95401723 20.0306563,1.57511611 16.4837393,0.153348192 L16.101259,0 L15.7187142,0.153348192 C12.171765,1.5753747 10.2880036,3.95459905 9.42264149,5.39291717 C8.33531891,4.68261505 6.46197498,3.78230859 3.9517122,3.78230859 C3.24009696,3.78230859 2.51148473,3.85597651 1.78609772,4.00143747 L0.958083832,4.16739229 L0.958083832,5.01371658 C0.958083832,6.98610274 1.19268721,12.0594907 3.36565523,16.5592128 C4.52112697,18.9519166 6.06407807,20.8430709 7.95161304,22.1801805 C9.95257942,23.5977462 12.3420895,24.3925126 15.0657659,24.5499014 L15.0657659,31.3508485 C15.0657659,31.9210232 15.5269419,32.3832335 16.0958084,32.3832335 C16.6646748,32.3832335 17.1258508,31.9210232 17.1258508,31.3508485 L17.1258508,24.5488024 C19.8423027,24.3890539 22.2265557,23.5947076 24.2247484,22.1804714 C26.1137992,20.8434265 27.6588144,18.9524338 28.8167374,16.5599886 C30.9979942,12.053446 31.2335329,6.98413095 31.2335329,5.01371658 L31.2335329,4.16774788 L30.4058415,4.00153446 Z M26.9632608,15.6588094 C24.7613625,20.2081175 21.1019817,22.5148377 16.0868422,22.5148377 C11.0727993,22.5148377 7.41667602,20.2084084 5.21997032,15.6597144 C3.49917985,12.0964054 3.10757215,8.09403054 3.03348858,5.89647077 C3.3424981,5.86353193 3.64934667,5.84701405 3.9517122,5.84701405 C7.1250505,5.84701405 8.97265707,7.62286629 9.04580534,7.69453006 L10.1750237,8.83261672 L10.7369237,7.33171806 C10.7403102,7.32289343 11.0870226,6.43658353 11.970575,5.34843846 C13.060768,4.00589831 14.4490048,2.95857927 16.1012913,2.23120974 C17.7535778,2.95854694 19.1415242,4.005769 20.2311367,5.34814753 C21.1142376,6.43616329 21.4604018,7.32240853 21.4620466,7.32677235 L22.0195603,8.83245508 L23.1510363,7.69847364 C23.2281839,7.62293092 25.0760484,5.84701402 28.2433233,5.84701402 C28.54456,5.84701402 28.850183,5.86356426 29.1579992,5.89630913 C29.0835608,8.09160618 28.6903405,12.0906193 26.9632608,15.6588094 Z"></path>
                <path d="M11.6252694,31.2335329 C11.1680687,31.2335329 10.7520513,30.9245415 10.6361376,30.4617559 C10.1212038,28.4056612 8.76372358,26.6519878 7.09342351,25.8850587 C5.44884299,25.1299623 3.55917605,25.2741244 1.47691616,26.3134304 C0.972909124,26.5650441 0.359953514,26.3610804 0.107934037,25.8579805 C-0.144053487,25.354753 0.0602011311,24.7428937 0.564304026,24.4913119 C3.88177255,22.8354582 6.40969925,23.3288303 7.94612994,24.0342035 C10.1988097,25.068534 11.9445111,27.2866515 12.6159987,29.9675864 C12.7526796,30.5133608 12.4202746,31.066439 11.8735508,31.2028826 C11.7904495,31.2235819 11.7071885,31.2335329 11.6252694,31.2335329 Z"></path>
                <path d="M20.3746666,31.2335329 C20.2927473,31.2335329 20.2094862,31.2235819 20.1263848,31.2028826 C19.579756,31.066439 19.2473186,30.5133608 19.3839997,29.9675864 C20.0554563,27.2866196 21.8011923,25.0685021 24.0538435,24.0342035 C25.5903403,23.3288303 28.1182388,22.8354582 31.4357123,24.4913119 C31.939784,24.7428937 32.1440709,25.3547211 31.892051,25.8579805 C31.6399992,26.3610804 31.0271066,26.5650441 30.5230668,26.3134304 C28.4408039,25.2741244 26.5511661,25.1299943 24.9065192,25.8850587 C23.2362486,26.6519878 21.8787025,28.4056612 21.3638318,30.4617559 C21.247886,30.9245415 20.8318679,31.2335329 20.3746666,31.2335329 Z"></path>
            </g>
        </g>
    </g>
</svg>