<?xml version="1.0" encoding="UTF-8"?>
<svg width="16px" height="16px" viewBox="0 0 16 16" version="1.1" xmlns="http://www.w3.org/2000/svg" xmlns:xlink="http://www.w3.org/1999/xlink">
    <!-- Generator: Sketch 47.1 (45422) - http://www.bohemiancoding.com/sketch -->
    <title>新建询价单</title>
    <desc>Created with Sketch.</desc>
    <defs></defs>
    <g id="切图" stroke="none" stroke-width="1" fill="none" fill-rule="evenodd">
        <g id="新建询价单">
            <path d="M5.96283241,11.7399396 L2.27001753,8.18428678 C1.90999416,7.83724772 1.90999416,7.27407552 2.27001753,6.92703646 C2.63097238,6.57997988 3.21542592,6.57997988 3.5754493,6.92703646 L6.61555742,9.85404664 L12.4245507,4.26096237 C12.7845741,3.91301254 13.3690276,3.91301254 13.7299825,4.26096237 C14.0900058,4.60800144 14.0900058,5.17028038 13.7299825,5.51731944 L7.26826417,11.7399396 C7.08779588,11.9130213 6.85120178,12 6.61555742,12 C6.37896333,12 6.14331897,11.9130213 5.96283241,11.7399396 Z" id="iconfont-duihao-2-copy" fill="#FFFFFF"></path>
            <g id="采购" transform="translate(1.000000, 2.000000)" fill-rule="nonzero" fill="#0D76E7">
                <path d="M13.7083333,4.9111111 L12.7458333,4.9111111 L10.4416667,12.22 C10.2958333,12.6822222 9.8875,13 9.39166666,13 L4.57916666,13 C4.1125,13 3.675,12.6822222 3.52916666,12.22 L1.25416666,4.9111111 L0.291666662,4.9111111 C0.116666662,4.9111111 0,4.79555555 0,4.62222222 C0,4.44888888 0.116666662,4.33333333 0.291666662,4.33333333 L6.125,4.33333333 C6.3,4.33333333 6.475,4.42 6.59166666,4.56444444 L7.02916666,5.14222222 C7.20416666,5.37333333 7.46666666,5.48888888 7.72916666,5.48888888 L9.77083334,5.48888888 C10.0333333,5.48888888 10.2958333,5.37333333 10.4708333,5.14222222 L10.9083333,4.56444444 C11.025,4.41999999 11.2,4.33333332 11.375,4.33333333 L13.7083333,4.33333333 C13.8833333,4.33333333 14,4.44888888 14,4.62222222 C14,4.79555555 13.8833333,4.9111111 13.7083333,4.9111111 Z M8.31623932,7.58333333 L3.52991453,7.58333333 C3.35042735,7.58333333 3.23076923,7.79999999 3.23076923,8.12500001 C3.23076923,8.45000004 3.35042735,8.66666667 3.52991453,8.66666667 L8.31623932,8.66666667 C8.4957265,8.66666667 8.61538462,8.45000001 8.61538462,8.12500001 C8.61538462,7.80000002 8.4957265,7.58333336 8.31623932,7.58333333 Z M9.36094675,9.75 L5.71597633,9.75 C5.51715976,9.75 5.38461538,9.96666666 5.38461538,10.2916667 C5.38461538,10.6166667 5.51715976,10.8333333 5.71597633,10.8333333 L9.36094675,10.8333333 C9.55976332,10.8333333 9.69230769,10.6166667 9.69230769,10.2916667 C9.69230769,9.96666663 9.55976332,9.75 9.36094675,9.75 Z M7.53846154,3.61111111 L8.18461539,3.61111111 L8.18461539,0.902777778 C8.18461539,0.391203699 8.60461538,0 9.15384615,0 C9.70307693,0 10.1230769,0.391203699 10.1230769,0.902777778 L10.1230769,3.61111111 L10.7692308,3.61111111 L9.15384615,5.41666667 L7.53846154,3.61111111 Z" id="Shape"></path>
            </g>
        </g>
    </g>
</svg>