<?xml version="1.0" encoding="UTF-8"?>
<svg width="32px" height="32px" viewBox="0 0 32 32" version="1.1" xmlns="http://www.w3.org/2000/svg" xmlns:xlink="http://www.w3.org/1999/xlink">
    <!-- Generator: Sketch 47.1 (45422) - http://www.bohemiancoding.com/sketch -->
    <title>已匹配</title>
    <desc>Created with Sketch.</desc>
    <defs></defs>
    <g id="切图" stroke="none" stroke-width="1" fill="none" fill-rule="evenodd">
        <g id="已匹配" fill-rule="nonzero" fill="#1368C2">
            <g id="适当性匹配" transform="translate(5.000000, 0.000000)">
                <path d="M11.6677248,18.3575469 C11.1157886,17.9628132 10.5783404,17.5582799 10.070311,17.1553002 L9.87450144,17 L9.67268158,17.1481895 C6.0169581,19.8329881 4.45320205,21.4536908 3.1896451,23.9143529 C1.96455417,26.2999641 1.98593819,28.3134286 2.00472833,30.0898498 L2.00510792,30.1268972 C2.00719572,30.3305382 2.00928352,30.5336414 2.00928352,30.7366849 C2.00928352,31.4332351 2.58197117,32 3.2858733,32 C3.98977543,32 4.56239982,31.4332948 4.56239982,30.7366849 C4.56239982,30.5124886 4.56005898,30.2882325 4.55765484,30.0628411 C4.54050966,28.4325778 4.52431345,26.8926025 5.46571773,25.059475 C6.5808516,22.8879019 8.06331034,21.4236347 11.6683574,18.8335458 L12,18.5952476 L11.6677248,18.3575469 Z" id="Shape"></path>
                <path d="M21.8878537,1.08089362 C21.8854957,1.06846888 21.8836474,1.05925434 21.882564,1.05319062 C21.7800203,0.44289174 21.2470351,0 20.61533,0 C20.5432499,0 20.470405,0.00606376974 20.3988984,0.0178940075 C19.7032708,0.133045859 19.2303843,0.780381195 19.3440172,1.45648959 C19.3461841,1.47123282 19.5468104,2.95489044 18.6213676,5.26547745 C17.0665778,9.14794367 14.634335,11.4139443 12.3003021,13.2132737 L12,13.4448853 L12.3028514,13.6735244 C12.6562416,13.9402106 13.0154952,14.2019626 13.3706699,14.4514682 C13.5625013,14.5861192 13.7497439,14.7198784 13.9348835,14.8530432 L14.1391425,15 L14.3357537,14.8443042 C18.2183944,11.769625 20.303174,8.85973708 21.4119719,5.60920892 C22.1647664,3.40235968 22.0332249,1.82483282 21.8878537,1.08089362 Z" id="Shape"></path>
                <path d="M18.8731586,23.4501794 C17.6219677,20.7971072 15.2373775,18.167417 11.368814,15.1743473 C8.64286785,13.0651753 5.07505455,9.67455249 3.55835177,5.49937518 C2.76041572,3.30303051 2.90638604,1.87667146 2.91297859,1.81767698 C3.03987128,0.970051248 2.50668872,0.165232446 1.72257954,0.0221229441 C1.64212665,0.00743428358 1.56039029,0 1.47947071,0 C0.766888173,0 0.165562827,0.5520539 0.0495216595,1.31268675 C-0.000418645684,1.63985427 -1.04875626,9.42256696 9.67924545,17.7228002 C13.1081478,20.3757525 15.2699903,22.714907 16.2882238,24.8737806 C17.1246652,26.6472117 17.1099632,28.1563068 17.094386,29.7529345 L17.0939776,29.7908252 C17.091994,30.0050998 17.0900104,30.2189548 17.0900104,30.4326898 C17.0900104,31.2969227 17.740751,32 18.5406707,32 C19.3405904,32 19.9913893,31.2969227 19.9913893,30.4326898 C19.9913893,30.2197941 19.9934312,30.0070184 19.9955899,29.7868683 C20.013209,27.969611 20.0332201,25.9098409 18.8731586,23.4501794 Z" id="Shape"></path>
                <path d="M14.8402229,2 L6.15977719,2 C5.52031437,2 5,2.44858576 5,3 C5,3.55141424 5.52025953,4 6.15977719,4 L14.8402228,4 C15.4796856,4 16,3.55141424 16,3 C16,2.44858576 15.4796856,2 14.8402229,2 Z" id="Shape"></path>
                <path d="M12.7881723,7 L7.21182767,7 C6.54366594,7 6,7.44858576 6,8 C6,8.55141424 6.54360863,9 7.21182767,9 L12.7881723,9 C13.4563341,9 14,8.55141424 14,8 C14,7.44858576 13.456334,7 12.7881723,7 Z" id="Shape"></path>
                <path d="M6.15977719,30 L14.8402228,30 C15.4796856,30 16,29.5514142 16,29 C16,28.4485858 15.4797405,28 14.8402228,28 L6.15977719,28 C5.52031437,28 5,28.4485858 5,29 C5,29.5514143 5.52031441,30 6.15977719,30 Z" id="Shape"></path>
                <path d="M7.21182767,25 L12.7881723,25 C13.4563341,25 14,24.5514142 14,24 C14,23.4485858 13.4563914,23 12.7881723,23 L7.21182767,23 C6.54366594,23 6,23.4485858 6,24 C6,24.5514143 6.54366594,25 7.21182767,25 Z" id="Shape"></path>
            </g>
        </g>
    </g>
</svg>